<?xml version="1.0" encoding="UTF-8" standalone="no"?>
<!DOCTYPE svg PUBLIC "-//W3C//DTD SVG 1.1//EN"
 "http://www.w3.org/Graphics/SVG/1.1/DTD/svg11.dtd">
<!-- Generated by graphviz version 14.1.5 (20260411.2331)
 -->
<!-- Title: Src/RxClass.cpp Pages: 1 -->
<svg width="190pt" height="196pt"
 viewBox="0.00 0.00 190.00 196.00" xmlns="http://www.w3.org/2000/svg" xmlns:xlink="http://www.w3.org/1999/xlink">
<g id="graph0" class="graph" transform="scale(1 1) rotate(0) translate(4 192)">
<title>Src/RxClass.cpp</title>
<!-- Node1 -->
<g id="Node000001" class="node">
<title>Node1</title>
<g id="a_Node000001"><a xlink:title=" ">
<polygon fill="#999999" stroke="#666666" points="181.5,-188 90.5,-188 90.5,-168 181.5,-168 181.5,-188"/>
<text xml:space="preserve" text-anchor="middle" x="136" y="-174.5" font-family="Helvetica,sans-Serif" font-size="10.00">Src/RxClass.cpp</text>
</a>
</g>
</g>
<!-- Node2 -->
<g id="Node000002" class="node">
<title>Node2</title>
<g id="a_Node000002"><a xlink:href="main_8h.html" target="_top" xlink:title=": Header for main.c file. This file contains the common defines of the application.">
<polygon fill="white" stroke="#666666" points="133.62,-132 88.38,-132 88.38,-112 133.62,-112 133.62,-132"/>
<text xml:space="preserve" text-anchor="middle" x="111" y="-118.5" font-family="Helvetica,sans-Serif" font-size="10.00">main.h</text>
</a>
</g>
</g>
<!-- Node1&#45;&gt;Node2 -->
<g id="edge1_Node000001_Node000002" class="edge">
<title>Node1&#45;&gt;Node2</title>
<g id="a_edge1_Node000001_Node000002"><a xlink:title=" ">
<path fill="none" stroke="#63b8ff" d="M131.65,-167.59C128.45,-160.7 124.01,-151.1 120.06,-142.57"/>
<polygon fill="#63b8ff" stroke="#63b8ff" points="123.32,-141.28 115.94,-133.67 116.97,-144.22 123.32,-141.28"/>
</a>
</g>
</g>
<!-- Node4 -->
<g id="Node000004" class="node">
<title>Node4</title>
<g id="a_Node000004"><a xlink:href="_rx_class_8h.html" target="_top" xlink:title=" ">
<polygon fill="white" stroke="#666666" points="168.25,-76 105.75,-76 105.75,-56 168.25,-56 168.25,-76"/>
<text xml:space="preserve" text-anchor="middle" x="137" y="-62.5" font-family="Helvetica,sans-Serif" font-size="10.00">RxClass.h</text>
</a>
</g>
</g>
<!-- Node1&#45;&gt;Node4 -->
<g id="edge6_Node000001_Node000004" class="edge">
<title>Node1&#45;&gt;Node4</title>
<g id="a_edge6_Node000001_Node000004"><a xlink:title=" ">
<path fill="none" stroke="#63b8ff" d="M137.87,-167.74C139.6,-158.68 142.04,-144.46 143,-132 144.15,-117.09 142.52,-100.27 140.67,-87.48"/>
<polygon fill="#63b8ff" stroke="#63b8ff" points="144.15,-87.05 139.09,-77.74 137.24,-88.18 144.15,-87.05"/>
</a>
</g>
</g>
<!-- Node3 -->
<g id="Node000003" class="node">
<title>Node3</title>
<g id="a_Node000003"><a xlink:title=" ">
<polygon fill="#e0e0e0" stroke="#999999" points="88,-76 0,-76 0,-56 88,-56 88,-76"/>
<text xml:space="preserve" text-anchor="middle" x="44" y="-62.5" font-family="Helvetica,sans-Serif" font-size="10.00">stm32f1xx_hal.h</text>
</a>
</g>
</g>
<!-- Node2&#45;&gt;Node3 -->
<g id="edge2_Node000002_Node000003" class="edge">
<title>Node2&#45;&gt;Node3</title>
<g id="a_edge2_Node000002_Node000003"><a xlink:title=" ">
<path fill="none" stroke="#63b8ff" d="M99.33,-111.59C89.72,-103.85 75.87,-92.69 64.43,-83.47"/>
<polygon fill="#63b8ff" stroke="#63b8ff" points="66.7,-80.8 56.72,-77.25 62.3,-86.25 66.7,-80.8"/>
</a>
</g>
</g>
<!-- Node2&#45;&gt;Node4 -->
<g id="edge3_Node000002_Node000004" class="edge">
<title>Node2&#45;&gt;Node4</title>
<g id="a_edge3_Node000002_Node000004"><a xlink:title=" ">
<path fill="none" stroke="#63b8ff" d="M110.26,-111.59C112.24,-104.55 116.6,-94.67 121.37,-86"/>
<polygon fill="#63b8ff" stroke="#63b8ff" points="124.28,-87.95 126.49,-77.59 118.3,-84.31 124.28,-87.95"/>
</a>
</g>
</g>
<!-- Node4&#45;&gt;Node2 -->
<g id="edge4_Node000004_Node000002" class="edge">
<title>Node4&#45;&gt;Node2</title>
<g id="a_edge4_Node000004_Node000002"><a xlink:title=" ">
<path fill="none" stroke="#63b8ff" d="M137.77,-76.3C135.81,-83.32 131.47,-93.19 126.7,-101.87"/>
<polygon fill="#63b8ff" stroke="#63b8ff" points="123.78,-99.94 121.58,-110.3 129.76,-103.57 123.78,-99.94"/>
</a>
</g>
</g>
<!-- Node5 -->
<g id="Node000005" class="node">
<title>Node5</title>
<g id="a_Node000005"><a xlink:title=" ">
<polygon fill="#e0e0e0" stroke="#999999" points="159.62,-20 114.38,-20 114.38,0 159.62,0 159.62,-20"/>
<text xml:space="preserve" text-anchor="middle" x="137" y="-6.5" font-family="Helvetica,sans-Serif" font-size="10.00">cstdint</text>
</a>
</g>
</g>
<!-- Node4&#45;&gt;Node5 -->
<g id="edge5_Node000004_Node000005" class="edge">
<title>Node4&#45;&gt;Node5</title>
<g id="a_edge5_Node000004_Node000005"><a xlink:title=" ">
<path fill="none" stroke="#63b8ff" d="M137,-55.59C137,-49.01 137,-39.96 137,-31.73"/>
<polygon fill="#63b8ff" stroke="#63b8ff" points="140.5,-31.81 137,-21.81 133.5,-31.81 140.5,-31.81"/>
</a>
</g>
</g>
</g>
</svg>
