<?xml version="1.0" encoding="UTF-8" standalone="no"?>
<!DOCTYPE svg PUBLIC "-//W3C//DTD SVG 1.1//EN"
 "http://www.w3.org/Graphics/SVG/1.1/DTD/svg11.dtd">
<!-- Generated by graphviz version 14.1.5 (20260411.2331)
 -->
<!-- Title: Inc/RxClass.h Pages: 1 -->
<svg width="559pt" height="196pt"
 viewBox="0.00 0.00 559.00 196.00" xmlns="http://www.w3.org/2000/svg" xmlns:xlink="http://www.w3.org/1999/xlink">
<g id="graph0" class="graph" transform="scale(1 1) rotate(0) translate(4 192)">
<title>Inc/RxClass.h</title>
<!-- Node1 -->
<g id="Node000001" class="node">
<title>Node1</title>
<g id="a_Node000001"><a xlink:title=" ">
<polygon fill="#999999" stroke="#666666" points="299.88,-188 220.88,-188 220.88,-168 299.88,-168 299.88,-188"/>
<text xml:space="preserve" text-anchor="middle" x="260.38" y="-174.5" font-family="Helvetica,sans-Serif" font-size="10.00">Inc/RxClass.h</text>
</a>
</g>
</g>
<!-- Node2 -->
<g id="Node000002" class="node">
<title>Node2</title>
<g id="a_Node000002"><a xlink:href="main_8h.html" target="_top" xlink:title=": Header for main.c file. This file contains the common defines of the application.">
<polygon fill="white" stroke="#666666" points="291.25,-132 229.5,-132 229.5,-112 291.25,-112 291.25,-132"/>
<text xml:space="preserve" text-anchor="middle" x="260.38" y="-118.5" font-family="Helvetica,sans-Serif" font-size="10.00">Inc/main.h</text>
</a>
</g>
</g>
<!-- Node1&#45;&gt;Node2 -->
<g id="edge1_Node000001_Node000002" class="edge">
<title>Node1&#45;&gt;Node2</title>
<g id="a_edge1_Node000001_Node000002"><a xlink:title=" ">
<path fill="none" stroke="#63b8ff" d="M253.8,-156.43C253.34,-148.11 253.79,-138.93 255.13,-132.3"/>
<polygon fill="#63b8ff" stroke="#63b8ff" points="250.29,-156.57 254.93,-166.09 257.24,-155.75 250.29,-156.57"/>
</a>
</g>
</g>
<!-- Node3 -->
<g id="Node000003" class="node">
<title>Node3</title>
<g id="a_Node000003"><a xlink:href="screen_handle_8hpp.html" target="_top" xlink:title=" ">
<polygon fill="white" stroke="#666666" points="139,-76 27.75,-76 27.75,-56 139,-56 139,-76"/>
<text xml:space="preserve" text-anchor="middle" x="83.38" y="-62.5" font-family="Helvetica,sans-Serif" font-size="10.00">Inc/screenHandle.hpp</text>
</a>
</g>
</g>
<!-- Node1&#45;&gt;Node3 -->
<g id="edge10_Node000001_Node000003" class="edge">
<title>Node1&#45;&gt;Node3</title>
<g id="a_edge10_Node000001_Node000003"><a xlink:title=" ">
<path fill="none" stroke="#63b8ff" d="M235.69,-161.66C198.44,-138.51 128.96,-95.33 98.43,-76.35"/>
<polygon fill="#63b8ff" stroke="#63b8ff" points="233.66,-164.52 244,-166.82 237.35,-158.57 233.66,-164.52"/>
</a>
</g>
</g>
<!-- Node6 -->
<g id="Node000006" class="node">
<title>Node6</title>
<g id="a_Node000006"><a xlink:href="_rx_class_8cpp.html" target="_top" xlink:title=" ">
<polygon fill="white" stroke="#666666" points="550.88,-76 459.88,-76 459.88,-56 550.88,-56 550.88,-76"/>
<text xml:space="preserve" text-anchor="middle" x="505.38" y="-62.5" font-family="Helvetica,sans-Serif" font-size="10.00">Src/RxClass.cpp</text>
</a>
</g>
</g>
<!-- Node1&#45;&gt;Node6 -->
<g id="edge11_Node000001_Node000006" class="edge">
<title>Node1&#45;&gt;Node6</title>
<g id="a_edge11_Node000001_Node000006"><a xlink:title=" ">
<path fill="none" stroke="#63b8ff" d="M291.62,-162.97C342.39,-140.18 441.46,-95.7 484.54,-76.35"/>
<polygon fill="#63b8ff" stroke="#63b8ff" points="290.33,-159.71 282.64,-167 293.2,-166.1 290.33,-159.71"/>
</a>
</g>
</g>
<!-- Node2&#45;&gt;Node1 -->
<g id="edge2_Node000002_Node000001" class="edge">
<title>Node2&#45;&gt;Node1</title>
<g id="a_edge2_Node000002_Node000001"><a xlink:title=" ">
<path fill="none" stroke="#63b8ff" d="M266.96,-143.73C267.4,-151.96 266.96,-161.01 265.64,-167.59"/>
<polygon fill="#63b8ff" stroke="#63b8ff" points="270.44,-143.33 265.8,-133.8 263.48,-144.14 270.44,-143.33"/>
</a>
</g>
</g>
<!-- Node2&#45;&gt;Node3 -->
<g id="edge3_Node000002_Node000003" class="edge">
<title>Node2&#45;&gt;Node3</title>
<g id="a_edge3_Node000002_Node000003"><a xlink:title=" ">
<path fill="none" stroke="#63b8ff" d="M218.76,-108.31C186.82,-98.56 143.41,-85.32 114.45,-76.48"/>
<polygon fill="#63b8ff" stroke="#63b8ff" points="217.51,-111.58 228.1,-111.15 219.55,-104.89 217.51,-111.58"/>
</a>
</g>
</g>
<!-- Node4 -->
<g id="Node000004" class="node">
<title>Node4</title>
<g id="a_Node000004"><a xlink:href="main_8cpp.html" target="_top" xlink:title=" ">
<polygon fill="white" stroke="#666666" points="204.25,-20 130.5,-20 130.5,0 204.25,0 204.25,-20"/>
<text xml:space="preserve" text-anchor="middle" x="167.38" y="-6.5" font-family="Helvetica,sans-Serif" font-size="10.00">Src/main.cpp</text>
</a>
</g>
</g>
<!-- Node2&#45;&gt;Node4 -->
<g id="edge7_Node000002_Node000004" class="edge">
<title>Node2&#45;&gt;Node4</title>
<g id="a_edge7_Node000002_Node000004"><a xlink:title=" ">
<path fill="none" stroke="#63b8ff" d="M225.43,-106.58C211.51,-99.27 196.44,-89.12 186.38,-76 173.49,-59.21 169.33,-33.9 168,-20.35"/>
<polygon fill="#63b8ff" stroke="#63b8ff" points="223.87,-109.72 234.39,-110.96 226.94,-103.43 223.87,-109.72"/>
</a>
</g>
</g>
<!-- Node2&#45;&gt;Node6 -->
<g id="edge6_Node000002_Node000006" class="edge">
<title>Node2&#45;&gt;Node6</title>
<g id="a_edge6_Node000002_Node000006"><a xlink:title=" ">
<path fill="none" stroke="#63b8ff" d="M302.48,-111.72C347.25,-101.85 417.68,-86.33 462.68,-76.41"/>
<polygon fill="#63b8ff" stroke="#63b8ff" points="301.89,-108.26 292.88,-113.84 303.4,-115.1 301.89,-108.26"/>
</a>
</g>
</g>
<!-- Node7 -->
<g id="Node000007" class="node">
<title>Node7</title>
<g id="a_Node000007"><a xlink:href="stm32f1xx__hal__msp_8c.html" target="_top" xlink:title="This file provides code for the MSP Initialization and de&#45;Initialization codes.">
<polygon fill="white" stroke="#666666" points="325.38,-76 195.38,-76 195.38,-56 325.38,-56 325.38,-76"/>
<text xml:space="preserve" text-anchor="middle" x="260.38" y="-62.5" font-family="Helvetica,sans-Serif" font-size="10.00">Src/stm32f1xx_hal_msp.c</text>
</a>
</g>
</g>
<!-- Node2&#45;&gt;Node7 -->
<g id="edge8_Node000002_Node000007" class="edge">
<title>Node2&#45;&gt;Node7</title>
<g id="a_edge8_Node000002_Node000007"><a xlink:title=" ">
<path fill="none" stroke="#63b8ff" d="M260.38,-100.13C260.38,-91.9 260.38,-82.85 260.38,-76.3"/>
<polygon fill="#63b8ff" stroke="#63b8ff" points="256.88,-100.08 260.38,-110.08 263.88,-100.08 256.88,-100.08"/>
</a>
</g>
</g>
<!-- Node8 -->
<g id="Node000008" class="node">
<title>Node8</title>
<g id="a_Node000008"><a xlink:href="stm32f1xx__it_8c.html" target="_top" xlink:title="Interrupt Service Routines.">
<polygon fill="white" stroke="#666666" points="441.62,-76 343.12,-76 343.12,-56 441.62,-56 441.62,-76"/>
<text xml:space="preserve" text-anchor="middle" x="392.38" y="-62.5" font-family="Helvetica,sans-Serif" font-size="10.00">Src/stm32f1xx_it.c</text>
</a>
</g>
</g>
<!-- Node2&#45;&gt;Node8 -->
<g id="edge9_Node000002_Node000008" class="edge">
<title>Node2&#45;&gt;Node8</title>
<g id="a_edge9_Node000002_Node000008"><a xlink:title=" ">
<path fill="none" stroke="#63b8ff" d="M293.93,-107.27C317.48,-97.64 348.36,-85.01 369.2,-76.48"/>
<polygon fill="#63b8ff" stroke="#63b8ff" points="292.7,-104 284.77,-111.02 295.35,-110.47 292.7,-104"/>
</a>
</g>
</g>
<!-- Node3&#45;&gt;Node4 -->
<g id="edge4_Node000003_Node000004" class="edge">
<title>Node3&#45;&gt;Node4</title>
<g id="a_edge4_Node000003_Node000004"><a xlink:title=" ">
<path fill="none" stroke="#63b8ff" d="M107.42,-49.54C122,-40.17 140.14,-28.51 152.63,-20.48"/>
<polygon fill="#63b8ff" stroke="#63b8ff" points="105.8,-46.42 99.28,-54.78 109.58,-52.31 105.8,-46.42"/>
</a>
</g>
</g>
<!-- Node5 -->
<g id="Node000005" class="node">
<title>Node5</title>
<g id="a_Node000005"><a xlink:href="screen_handle_8cpp.html" target="_top" xlink:title=" ">
<polygon fill="white" stroke="#666666" points="112.75,-20 0,-20 0,0 112.75,0 112.75,-20"/>
<text xml:space="preserve" text-anchor="middle" x="56.38" y="-6.5" font-family="Helvetica,sans-Serif" font-size="10.00">Src/screenHandle.cpp</text>
</a>
</g>
</g>
<!-- Node3&#45;&gt;Node5 -->
<g id="edge5_Node000003_Node000005" class="edge">
<title>Node3&#45;&gt;Node5</title>
<g id="a_edge5_Node000003_Node000005"><a xlink:title=" ">
<path fill="none" stroke="#63b8ff" d="M73.66,-45.58C69.36,-36.97 64.49,-27.24 61.02,-20.3"/>
<polygon fill="#63b8ff" stroke="#63b8ff" points="70.39,-46.86 78,-54.24 76.65,-43.73 70.39,-46.86"/>
</a>
</g>
</g>
</g>
</svg>
