<?xml version="1.0" encoding="UTF-8" standalone="no"?>
<!DOCTYPE svg PUBLIC "-//W3C//DTD SVG 1.1//EN"
 "http://www.w3.org/Graphics/SVG/1.1/DTD/svg11.dtd">
<!-- Generated by graphviz version 14.1.5 (20260411.2331)
 -->
<!-- Title: Inc/RxClass.h Pages: 1 -->
<svg width="138pt" height="140pt"
 viewBox="0.00 0.00 138.00 140.00" xmlns="http://www.w3.org/2000/svg" xmlns:xlink="http://www.w3.org/1999/xlink">
<g id="graph0" class="graph" transform="scale(1 1) rotate(0) translate(4 136)">
<title>Inc/RxClass.h</title>
<!-- Node1 -->
<g id="Node000001" class="node">
<title>Node1</title>
<g id="a_Node000001"><a xlink:title=" ">
<polygon fill="#999999" stroke="#666666" points="83.5,-132 4.5,-132 4.5,-112 83.5,-112 83.5,-132"/>
<text xml:space="preserve" text-anchor="middle" x="44" y="-118.5" font-family="Helvetica,sans-Serif" font-size="10.00">Inc/RxClass.h</text>
</a>
</g>
</g>
<!-- Node2 -->
<g id="Node000002" class="node">
<title>Node2</title>
<g id="a_Node000002"><a xlink:href="main_8h.html" target="_top" xlink:title=": Header for main.c file. This file contains the common defines of the application.">
<polygon fill="white" stroke="#666666" points="66.62,-76 21.38,-76 21.38,-56 66.62,-56 66.62,-76"/>
<text xml:space="preserve" text-anchor="middle" x="44" y="-62.5" font-family="Helvetica,sans-Serif" font-size="10.00">main.h</text>
</a>
</g>
</g>
<!-- Node1&#45;&gt;Node2 -->
<g id="edge1_Node000001_Node000002" class="edge">
<title>Node1&#45;&gt;Node2</title>
<g id="a_edge1_Node000001_Node000002"><a xlink:title=" ">
<path fill="none" stroke="#63b8ff" d="M38.73,-111.59C37.42,-105.01 36.98,-95.96 37.41,-87.73"/>
<polygon fill="#63b8ff" stroke="#63b8ff" points="40.89,-88.14 38.58,-77.8 33.94,-87.33 40.89,-88.14"/>
</a>
</g>
</g>
<!-- Node4 -->
<g id="Node000004" class="node">
<title>Node4</title>
<g id="a_Node000004"><a xlink:title=" ">
<polygon fill="#e0e0e0" stroke="#999999" points="129.62,-76 84.38,-76 84.38,-56 129.62,-56 129.62,-76"/>
<text xml:space="preserve" text-anchor="middle" x="107" y="-62.5" font-family="Helvetica,sans-Serif" font-size="10.00">cstdint</text>
</a>
</g>
</g>
<!-- Node1&#45;&gt;Node4 -->
<g id="edge4_Node000001_Node000004" class="edge">
<title>Node1&#45;&gt;Node4</title>
<g id="a_edge4_Node000001_Node000004"><a xlink:title=" ">
<path fill="none" stroke="#63b8ff" d="M54.97,-111.59C63.92,-103.93 76.77,-92.91 87.46,-83.75"/>
<polygon fill="#63b8ff" stroke="#63b8ff" points="89.69,-86.45 95,-77.28 85.13,-81.13 89.69,-86.45"/>
</a>
</g>
</g>
<!-- Node2&#45;&gt;Node1 -->
<g id="edge3_Node000002_Node000001" class="edge">
<title>Node2&#45;&gt;Node1</title>
<g id="a_edge3_Node000002_Node000001"><a xlink:title=" ">
<path fill="none" stroke="#63b8ff" d="M49.25,-76.3C50.59,-82.93 51.03,-92.11 50.58,-100.43"/>
<polygon fill="#63b8ff" stroke="#63b8ff" points="47.13,-99.75 49.44,-110.09 54.08,-100.57 47.13,-99.75"/>
</a>
</g>
</g>
<!-- Node3 -->
<g id="Node000003" class="node">
<title>Node3</title>
<g id="a_Node000003"><a xlink:title=" ">
<polygon fill="#e0e0e0" stroke="#999999" points="88,-20 0,-20 0,0 88,0 88,-20"/>
<text xml:space="preserve" text-anchor="middle" x="44" y="-6.5" font-family="Helvetica,sans-Serif" font-size="10.00">stm32f1xx_hal.h</text>
</a>
</g>
</g>
<!-- Node2&#45;&gt;Node3 -->
<g id="edge2_Node000002_Node000003" class="edge">
<title>Node2&#45;&gt;Node3</title>
<g id="a_edge2_Node000002_Node000003"><a xlink:title=" ">
<path fill="none" stroke="#63b8ff" d="M44,-55.59C44,-49.01 44,-39.96 44,-31.73"/>
<polygon fill="#63b8ff" stroke="#63b8ff" points="47.5,-31.81 44,-21.81 40.5,-31.81 47.5,-31.81"/>
</a>
</g>
</g>
</g>
</svg>
