<?xml version="1.0" encoding="UTF-8" standalone="no"?>
<!DOCTYPE svg PUBLIC "-//W3C//DTD SVG 1.1//EN"
 "http://www.w3.org/Graphics/SVG/1.1/DTD/svg11.dtd">
<!-- Generated by graphviz version 14.1.5 (20260411.2331)
 -->
<!-- Title: ScreenPanel Pages: 1 -->
<svg width="94pt" height="438pt"
 viewBox="0.00 0.00 94.00 438.00" xmlns="http://www.w3.org/2000/svg" xmlns:xlink="http://www.w3.org/1999/xlink">
<g id="graph0" class="graph" transform="scale(1 1) rotate(0) translate(4 434)">
<title>ScreenPanel</title>
<!-- Node1 -->
<g id="Node000001" class="node">
<title>Node1</title>
<g id="a_Node000001"><a xlink:title=" ">
<polygon fill="#999999" stroke="none" points="85.5,-116 0,-116 0,0 85.5,0 85.5,-116"/>
<text xml:space="preserve" text-anchor="start" x="15" y="-102.25" font-family="Helvetica,sans-Serif" font-size="10.00">ScreenPanel</text>
<text xml:space="preserve" text-anchor="start" x="5.5" y="-86.25" font-family="Helvetica,sans-Serif" font-size="10.00">&#45;</text>
<text xml:space="preserve" text-anchor="start" x="14" y="-86.25" font-family="Helvetica,sans-Serif" font-size="10.00">name</text>
<text xml:space="preserve" text-anchor="start" x="4" y="-70.25" font-family="Helvetica,sans-Serif" font-size="10.00">+</text>
<text xml:space="preserve" text-anchor="start" x="14" y="-70.25" font-family="Helvetica,sans-Serif" font-size="10.00">ScreenPanel()</text>
<text xml:space="preserve" text-anchor="start" x="4" y="-54.25" font-family="Helvetica,sans-Serif" font-size="10.00">+</text>
<text xml:space="preserve" text-anchor="start" x="14" y="-54.25" font-family="Helvetica,sans-Serif" font-size="10.00">~ScreenPanel()</text>
<text xml:space="preserve" text-anchor="start" x="4" y="-38.25" font-family="Helvetica,sans-Serif" font-size="10.00">+</text>
<text xml:space="preserve" text-anchor="start" x="14" y="-38.25" font-family="Helvetica,sans-Serif" font-size="10.00">Display()</text>
<text xml:space="preserve" text-anchor="start" x="4" y="-22.25" font-family="Helvetica,sans-Serif" font-size="10.00">+</text>
<text xml:space="preserve" text-anchor="start" x="14" y="-22.25" font-family="Helvetica,sans-Serif" font-size="10.00">titleScreen()</text>
<text xml:space="preserve" text-anchor="start" x="4" y="-6.25" font-family="Helvetica,sans-Serif" font-size="10.00">+</text>
<text xml:space="preserve" text-anchor="start" x="14" y="-6.25" font-family="Helvetica,sans-Serif" font-size="10.00">ButtonAction()</text>
<polygon fill="#666666" stroke="#666666" points="0,-98 0,-98 85.5,-98 85.5,-98 0,-98"/>
<polygon fill="#666666" stroke="#666666" points="0,-82 0,-82 12,-82 12,-82 0,-82"/>
<polygon fill="#666666" stroke="#666666" points="12,-82 12,-82 85.5,-82 85.5,-82 12,-82"/>
<polygon fill="none" stroke="#666666" points="0,0 0,-116 85.5,-116 85.5,0 0,0"/>
</a>
</g>
</g>
<!-- Node2 -->
<g id="Node000002" class="node">
<title>Node2</title>
<g id="a_Node000002"><a xlink:href="class_rx___type_def.html" target="_top" xlink:title=" ">
<polygon fill="white" stroke="none" points="85.12,-430 0.38,-430 0.38,-170 85.12,-170 85.12,-430"/>
<text xml:space="preserve" text-anchor="start" x="15.38" y="-416.25" font-family="Helvetica,sans-Serif" font-size="10.00">Rx_TypeDef</text>
<text xml:space="preserve" text-anchor="start" x="5.88" y="-400.25" font-family="Helvetica,sans-Serif" font-size="10.00">&#45;</text>
<text xml:space="preserve" text-anchor="start" x="14.38" y="-400.25" font-family="Helvetica,sans-Serif" font-size="10.00">_val</text>
<text xml:space="preserve" text-anchor="start" x="5.88" y="-384.25" font-family="Helvetica,sans-Serif" font-size="10.00">&#45;</text>
<text xml:space="preserve" text-anchor="start" x="14.38" y="-384.25" font-family="Helvetica,sans-Serif" font-size="10.00">_float</text>
<text xml:space="preserve" text-anchor="start" x="5.88" y="-368.25" font-family="Helvetica,sans-Serif" font-size="10.00">&#45;</text>
<text xml:space="preserve" text-anchor="start" x="14.38" y="-368.25" font-family="Helvetica,sans-Serif" font-size="10.00">_ID</text>
<text xml:space="preserve" text-anchor="start" x="5.88" y="-352.25" font-family="Helvetica,sans-Serif" font-size="10.00">&#45;</text>
<text xml:space="preserve" text-anchor="start" x="14.38" y="-352.25" font-family="Helvetica,sans-Serif" font-size="10.00">_type</text>
<text xml:space="preserve" text-anchor="start" x="5.88" y="-336.25" font-family="Helvetica,sans-Serif" font-size="10.00">&#45;</text>
<text xml:space="preserve" text-anchor="start" x="14.38" y="-336.25" font-family="Helvetica,sans-Serif" font-size="10.00">_label</text>
<text xml:space="preserve" text-anchor="start" x="4.38" y="-320.25" font-family="Helvetica,sans-Serif" font-size="10.00">+</text>
<text xml:space="preserve" text-anchor="start" x="14.38" y="-320.25" font-family="Helvetica,sans-Serif" font-size="10.00">Rx_TypeDef()</text>
<text xml:space="preserve" text-anchor="start" x="4.38" y="-304.25" font-family="Helvetica,sans-Serif" font-size="10.00">+</text>
<text xml:space="preserve" text-anchor="start" x="14.38" y="-304.25" font-family="Helvetica,sans-Serif" font-size="10.00">Rx_TypeDef()</text>
<text xml:space="preserve" text-anchor="start" x="4.38" y="-288.25" font-family="Helvetica,sans-Serif" font-size="10.00">+</text>
<text xml:space="preserve" text-anchor="start" x="14.38" y="-288.25" font-family="Helvetica,sans-Serif" font-size="10.00">~Rx_TypeDef()</text>
<text xml:space="preserve" text-anchor="start" x="4.38" y="-272.25" font-family="Helvetica,sans-Serif" font-size="10.00">+</text>
<text xml:space="preserve" text-anchor="start" x="14.38" y="-272.25" font-family="Helvetica,sans-Serif" font-size="10.00">getID()</text>
<text xml:space="preserve" text-anchor="start" x="4.38" y="-256.25" font-family="Helvetica,sans-Serif" font-size="10.00">+</text>
<text xml:space="preserve" text-anchor="start" x="14.38" y="-256.25" font-family="Helvetica,sans-Serif" font-size="10.00">getValue()</text>
<text xml:space="preserve" text-anchor="start" x="4.38" y="-240.25" font-family="Helvetica,sans-Serif" font-size="10.00">+</text>
<text xml:space="preserve" text-anchor="start" x="14.38" y="-240.25" font-family="Helvetica,sans-Serif" font-size="10.00">getFloat()</text>
<text xml:space="preserve" text-anchor="start" x="4.38" y="-224.25" font-family="Helvetica,sans-Serif" font-size="10.00">+</text>
<text xml:space="preserve" text-anchor="start" x="14.38" y="-224.25" font-family="Helvetica,sans-Serif" font-size="10.00">getLabel()</text>
<text xml:space="preserve" text-anchor="start" x="4.38" y="-208.25" font-family="Helvetica,sans-Serif" font-size="10.00">+</text>
<text xml:space="preserve" text-anchor="start" x="14.38" y="-208.25" font-family="Helvetica,sans-Serif" font-size="10.00">getType()</text>
<text xml:space="preserve" text-anchor="start" x="4.38" y="-192.25" font-family="Helvetica,sans-Serif" font-size="10.00">+</text>
<text xml:space="preserve" text-anchor="start" x="14.38" y="-192.25" font-family="Helvetica,sans-Serif" font-size="10.00">_Update()</text>
<text xml:space="preserve" text-anchor="start" x="4.38" y="-176.25" font-family="Helvetica,sans-Serif" font-size="10.00">+</text>
<text xml:space="preserve" text-anchor="start" x="14.38" y="-176.25" font-family="Helvetica,sans-Serif" font-size="10.00">_UpdateFloat()</text>
<polygon fill="#666666" stroke="#666666" points="0.38,-412 0.38,-412 85.12,-412 85.12,-412 0.38,-412"/>
<polygon fill="#666666" stroke="#666666" points="0.38,-332 0.38,-332 12.38,-332 12.38,-332 0.38,-332"/>
<polygon fill="#666666" stroke="#666666" points="12.38,-332 12.38,-332 85.12,-332 85.12,-332 12.38,-332"/>
<polygon fill="none" stroke="#666666" points="0.38,-170 0.38,-430 85.12,-430 85.12,-170 0.38,-170"/>
</a>
</g>
</g>
<!-- Node2&#45;&gt;Node1 -->
<g id="edge1_Node000001_Node000002" class="edge">
<title>Node2&#45;&gt;Node1</title>
<g id="a_edge1_Node000001_Node000002"><a xlink:title=" ">
<path fill="none" stroke="#63b8ff" d="M42.75,-170.22C42.75,-155.96 42.75,-141.86 42.75,-128.74"/>
<polygon fill="none" stroke="#63b8ff" points="42.75,-128.88 38.75,-122.88 42.75,-116.88 46.75,-122.88 42.75,-128.88"/>
</a>
</g>
<text xml:space="preserve" text-anchor="start" x="45.75" y="-139.25" font-family="Helvetica,sans-Serif" font-size="10.00" fill="grey">&#45;data</text>
</g>
</g>
</svg>
