<?xml version="1.0" encoding="UTF-8" standalone="no"?>
<!DOCTYPE svg PUBLIC "-//W3C//DTD SVG 1.1//EN"
 "http://www.w3.org/Graphics/SVG/1.1/DTD/svg11.dtd">
<!-- Generated by graphviz version 14.1.5 (20260411.2331)
 -->
<!-- Title: ScreenHandler Pages: 1 -->
<svg width="143pt" height="778pt"
 viewBox="0.00 0.00 143.00 778.00" xmlns="http://www.w3.org/2000/svg" xmlns:xlink="http://www.w3.org/1999/xlink">
<g id="graph0" class="graph" transform="scale(1 1) rotate(0) translate(4 774)">
<title>ScreenHandler</title>
<!-- Node1 -->
<g id="Node000001" class="node">
<title>Node1</title>
<g id="a_Node000001"><a xlink:title="A class to handle the screen.">
<polygon fill="#999999" stroke="none" points="114.62,-180 20.12,-180 20.12,0 114.62,0 114.62,-180"/>
<text xml:space="preserve" text-anchor="start" x="35.12" y="-166.25" font-family="Helvetica,sans-Serif" font-size="10.00">ScreenHandler</text>
<text xml:space="preserve" text-anchor="start" x="25.62" y="-150.25" font-family="Helvetica,sans-Serif" font-size="10.00">&#45;</text>
<text xml:space="preserve" text-anchor="start" x="34.12" y="-150.25" font-family="Helvetica,sans-Serif" font-size="10.00">_curScreen</text>
<text xml:space="preserve" text-anchor="start" x="24.12" y="-134.25" font-family="Helvetica,sans-Serif" font-size="10.00">+</text>
<text xml:space="preserve" text-anchor="start" x="34.12" y="-134.25" font-family="Helvetica,sans-Serif" font-size="10.00">ScreenHandler()</text>
<text xml:space="preserve" text-anchor="start" x="24.12" y="-118.25" font-family="Helvetica,sans-Serif" font-size="10.00">+</text>
<text xml:space="preserve" text-anchor="start" x="34.12" y="-118.25" font-family="Helvetica,sans-Serif" font-size="10.00">~ScreenHandler()</text>
<text xml:space="preserve" text-anchor="start" x="24.12" y="-102.25" font-family="Helvetica,sans-Serif" font-size="10.00">+</text>
<text xml:space="preserve" text-anchor="start" x="34.12" y="-102.25" font-family="Helvetica,sans-Serif" font-size="10.00">startScreen()</text>
<text xml:space="preserve" text-anchor="start" x="24.12" y="-86.25" font-family="Helvetica,sans-Serif" font-size="10.00">+</text>
<text xml:space="preserve" text-anchor="start" x="34.12" y="-86.25" font-family="Helvetica,sans-Serif" font-size="10.00">handle()</text>
<text xml:space="preserve" text-anchor="start" x="24.12" y="-70.25" font-family="Helvetica,sans-Serif" font-size="10.00">+</text>
<text xml:space="preserve" text-anchor="start" x="34.12" y="-70.25" font-family="Helvetica,sans-Serif" font-size="10.00">update()</text>
<text xml:space="preserve" text-anchor="start" x="24.12" y="-54.25" font-family="Helvetica,sans-Serif" font-size="10.00">+</text>
<text xml:space="preserve" text-anchor="start" x="34.12" y="-54.25" font-family="Helvetica,sans-Serif" font-size="10.00">nextScreen()</text>
<text xml:space="preserve" text-anchor="start" x="24.12" y="-38.25" font-family="Helvetica,sans-Serif" font-size="10.00">+</text>
<text xml:space="preserve" text-anchor="start" x="34.12" y="-38.25" font-family="Helvetica,sans-Serif" font-size="10.00">prevScreen()</text>
<text xml:space="preserve" text-anchor="start" x="24.12" y="-22.25" font-family="Helvetica,sans-Serif" font-size="10.00">+</text>
<text xml:space="preserve" text-anchor="start" x="34.12" y="-22.25" font-family="Helvetica,sans-Serif" font-size="10.00">addScreen()</text>
<text xml:space="preserve" text-anchor="start" x="24.12" y="-6.25" font-family="Helvetica,sans-Serif" font-size="10.00">+</text>
<text xml:space="preserve" text-anchor="start" x="34.12" y="-6.25" font-family="Helvetica,sans-Serif" font-size="10.00">getIndex()</text>
<polygon fill="#666666" stroke="#666666" points="20.12,-162 20.12,-162 114.62,-162 114.62,-162 20.12,-162"/>
<polygon fill="#666666" stroke="#666666" points="20.12,-146 20.12,-146 32.12,-146 32.12,-146 20.12,-146"/>
<polygon fill="#666666" stroke="#666666" points="32.12,-146 32.12,-146 114.62,-146 114.62,-146 32.12,-146"/>
<polygon fill="none" stroke="#666666" points="20.12,0 20.12,-180 114.62,-180 114.62,0 20.12,0"/>
</a>
</g>
</g>
<!-- Node2 -->
<g id="Node000002" class="node">
<title>Node2</title>
<g id="a_Node000002"><a xlink:title=" ">
<polygon fill="white" stroke="none" points="134.75,-286 0,-286 0,-234 134.75,-234 134.75,-286"/>
<text xml:space="preserve" text-anchor="start" x="4" y="-272.25" font-family="Helvetica,sans-Serif" font-size="10.00">std::vector&lt; ScreenPanel * &gt;</text>
<text xml:space="preserve" text-anchor="start" x="65.88" y="-256.25" font-family="Helvetica,sans-Serif" font-size="10.00"> </text>
<text xml:space="preserve" text-anchor="start" x="65.88" y="-240.25" font-family="Helvetica,sans-Serif" font-size="10.00"> </text>
<polygon fill="#666666" stroke="#666666" points="0,-268 0,-268 134.75,-268 134.75,-268 0,-268"/>
<polygon fill="#666666" stroke="#666666" points="0,-252 0,-252 134.75,-252 134.75,-252 0,-252"/>
<polygon fill="none" stroke="#666666" points="0,-234 0,-286 134.75,-286 134.75,-234 0,-234"/>
</a>
</g>
</g>
<!-- Node2&#45;&gt;Node1 -->
<g id="edge1_Node000001_Node000002" class="edge">
<title>Node2&#45;&gt;Node1</title>
<g id="a_edge1_Node000001_Node000002"><a xlink:title=" ">
<path fill="none" stroke="#63b8ff" d="M67.38,-234.21C67.38,-222.73 67.38,-208.25 67.38,-192.93"/>
<polygon fill="none" stroke="#63b8ff" points="67.38,-192.82 63.38,-186.82 67.38,-180.82 71.38,-186.82 67.38,-192.82"/>
</a>
</g>
<text xml:space="preserve" text-anchor="start" x="70.38" y="-203.25" font-family="Helvetica,sans-Serif" font-size="10.00" fill="grey">&#45;_screens</text>
</g>
<!-- Node3 -->
<g id="Node000003" class="node">
<title>Node3</title>
<g id="a_Node000003"><a xlink:href="class_screen_panel.html" target="_top" xlink:title=" ">
<polygon fill="white" stroke="none" points="110.12,-456 24.62,-456 24.62,-340 110.12,-340 110.12,-456"/>
<text xml:space="preserve" text-anchor="start" x="39.62" y="-442.25" font-family="Helvetica,sans-Serif" font-size="10.00">ScreenPanel</text>
<text xml:space="preserve" text-anchor="start" x="30.12" y="-426.25" font-family="Helvetica,sans-Serif" font-size="10.00">&#45;</text>
<text xml:space="preserve" text-anchor="start" x="38.62" y="-426.25" font-family="Helvetica,sans-Serif" font-size="10.00">name</text>
<text xml:space="preserve" text-anchor="start" x="28.62" y="-410.25" font-family="Helvetica,sans-Serif" font-size="10.00">+</text>
<text xml:space="preserve" text-anchor="start" x="38.62" y="-410.25" font-family="Helvetica,sans-Serif" font-size="10.00">ScreenPanel()</text>
<text xml:space="preserve" text-anchor="start" x="28.62" y="-394.25" font-family="Helvetica,sans-Serif" font-size="10.00">+</text>
<text xml:space="preserve" text-anchor="start" x="38.62" y="-394.25" font-family="Helvetica,sans-Serif" font-size="10.00">~ScreenPanel()</text>
<text xml:space="preserve" text-anchor="start" x="28.62" y="-378.25" font-family="Helvetica,sans-Serif" font-size="10.00">+</text>
<text xml:space="preserve" text-anchor="start" x="38.62" y="-378.25" font-family="Helvetica,sans-Serif" font-size="10.00">Display()</text>
<text xml:space="preserve" text-anchor="start" x="28.62" y="-362.25" font-family="Helvetica,sans-Serif" font-size="10.00">+</text>
<text xml:space="preserve" text-anchor="start" x="38.62" y="-362.25" font-family="Helvetica,sans-Serif" font-size="10.00">titleScreen()</text>
<text xml:space="preserve" text-anchor="start" x="28.62" y="-346.25" font-family="Helvetica,sans-Serif" font-size="10.00">+</text>
<text xml:space="preserve" text-anchor="start" x="38.62" y="-346.25" font-family="Helvetica,sans-Serif" font-size="10.00">ButtonAction()</text>
<polygon fill="#666666" stroke="#666666" points="24.62,-438 24.62,-438 110.12,-438 110.12,-438 24.62,-438"/>
<polygon fill="#666666" stroke="#666666" points="24.62,-422 24.62,-422 36.62,-422 36.62,-422 24.62,-422"/>
<polygon fill="#666666" stroke="#666666" points="36.62,-422 36.62,-422 110.12,-422 110.12,-422 36.62,-422"/>
<polygon fill="none" stroke="#666666" points="24.62,-340 24.62,-456 110.12,-456 110.12,-340 24.62,-340"/>
</a>
</g>
</g>
<!-- Node3&#45;&gt;Node2 -->
<g id="edge2_Node000002_Node000003" class="edge">
<title>Node3&#45;&gt;Node2</title>
<g id="a_edge2_Node000002_Node000003"><a xlink:title=" ">
<path fill="none" stroke="#63b8ff" d="M67.38,-340.11C67.38,-326.21 67.38,-311.68 67.38,-298.92"/>
<polygon fill="none" stroke="#63b8ff" points="67.38,-298.78 63.38,-292.78 67.38,-286.78 71.38,-292.78 67.38,-298.78"/>
</a>
</g>
<text xml:space="preserve" text-anchor="start" x="70.38" y="-309.25" font-family="Helvetica,sans-Serif" font-size="10.00" fill="grey">+elements</text>
</g>
<!-- Node4 -->
<g id="Node000004" class="node">
<title>Node4</title>
<g id="a_Node000004"><a xlink:href="class_rx___type_def.html" target="_top" xlink:title=" ">
<polygon fill="white" stroke="none" points="109.75,-770 25,-770 25,-510 109.75,-510 109.75,-770"/>
<text xml:space="preserve" text-anchor="start" x="40" y="-756.25" font-family="Helvetica,sans-Serif" font-size="10.00">Rx_TypeDef</text>
<text xml:space="preserve" text-anchor="start" x="30.5" y="-740.25" font-family="Helvetica,sans-Serif" font-size="10.00">&#45;</text>
<text xml:space="preserve" text-anchor="start" x="39" y="-740.25" font-family="Helvetica,sans-Serif" font-size="10.00">_val</text>
<text xml:space="preserve" text-anchor="start" x="30.5" y="-724.25" font-family="Helvetica,sans-Serif" font-size="10.00">&#45;</text>
<text xml:space="preserve" text-anchor="start" x="39" y="-724.25" font-family="Helvetica,sans-Serif" font-size="10.00">_float</text>
<text xml:space="preserve" text-anchor="start" x="30.5" y="-708.25" font-family="Helvetica,sans-Serif" font-size="10.00">&#45;</text>
<text xml:space="preserve" text-anchor="start" x="39" y="-708.25" font-family="Helvetica,sans-Serif" font-size="10.00">_ID</text>
<text xml:space="preserve" text-anchor="start" x="30.5" y="-692.25" font-family="Helvetica,sans-Serif" font-size="10.00">&#45;</text>
<text xml:space="preserve" text-anchor="start" x="39" y="-692.25" font-family="Helvetica,sans-Serif" font-size="10.00">_type</text>
<text xml:space="preserve" text-anchor="start" x="30.5" y="-676.25" font-family="Helvetica,sans-Serif" font-size="10.00">&#45;</text>
<text xml:space="preserve" text-anchor="start" x="39" y="-676.25" font-family="Helvetica,sans-Serif" font-size="10.00">_label</text>
<text xml:space="preserve" text-anchor="start" x="29" y="-660.25" font-family="Helvetica,sans-Serif" font-size="10.00">+</text>
<text xml:space="preserve" text-anchor="start" x="39" y="-660.25" font-family="Helvetica,sans-Serif" font-size="10.00">Rx_TypeDef()</text>
<text xml:space="preserve" text-anchor="start" x="29" y="-644.25" font-family="Helvetica,sans-Serif" font-size="10.00">+</text>
<text xml:space="preserve" text-anchor="start" x="39" y="-644.25" font-family="Helvetica,sans-Serif" font-size="10.00">Rx_TypeDef()</text>
<text xml:space="preserve" text-anchor="start" x="29" y="-628.25" font-family="Helvetica,sans-Serif" font-size="10.00">+</text>
<text xml:space="preserve" text-anchor="start" x="39" y="-628.25" font-family="Helvetica,sans-Serif" font-size="10.00">~Rx_TypeDef()</text>
<text xml:space="preserve" text-anchor="start" x="29" y="-612.25" font-family="Helvetica,sans-Serif" font-size="10.00">+</text>
<text xml:space="preserve" text-anchor="start" x="39" y="-612.25" font-family="Helvetica,sans-Serif" font-size="10.00">getID()</text>
<text xml:space="preserve" text-anchor="start" x="29" y="-596.25" font-family="Helvetica,sans-Serif" font-size="10.00">+</text>
<text xml:space="preserve" text-anchor="start" x="39" y="-596.25" font-family="Helvetica,sans-Serif" font-size="10.00">getValue()</text>
<text xml:space="preserve" text-anchor="start" x="29" y="-580.25" font-family="Helvetica,sans-Serif" font-size="10.00">+</text>
<text xml:space="preserve" text-anchor="start" x="39" y="-580.25" font-family="Helvetica,sans-Serif" font-size="10.00">getFloat()</text>
<text xml:space="preserve" text-anchor="start" x="29" y="-564.25" font-family="Helvetica,sans-Serif" font-size="10.00">+</text>
<text xml:space="preserve" text-anchor="start" x="39" y="-564.25" font-family="Helvetica,sans-Serif" font-size="10.00">getLabel()</text>
<text xml:space="preserve" text-anchor="start" x="29" y="-548.25" font-family="Helvetica,sans-Serif" font-size="10.00">+</text>
<text xml:space="preserve" text-anchor="start" x="39" y="-548.25" font-family="Helvetica,sans-Serif" font-size="10.00">getType()</text>
<text xml:space="preserve" text-anchor="start" x="29" y="-532.25" font-family="Helvetica,sans-Serif" font-size="10.00">+</text>
<text xml:space="preserve" text-anchor="start" x="39" y="-532.25" font-family="Helvetica,sans-Serif" font-size="10.00">_Update()</text>
<text xml:space="preserve" text-anchor="start" x="29" y="-516.25" font-family="Helvetica,sans-Serif" font-size="10.00">+</text>
<text xml:space="preserve" text-anchor="start" x="39" y="-516.25" font-family="Helvetica,sans-Serif" font-size="10.00">_UpdateFloat()</text>
<polygon fill="#666666" stroke="#666666" points="25,-752 25,-752 109.75,-752 109.75,-752 25,-752"/>
<polygon fill="#666666" stroke="#666666" points="25,-672 25,-672 37,-672 37,-672 25,-672"/>
<polygon fill="#666666" stroke="#666666" points="37,-672 37,-672 109.75,-672 109.75,-672 37,-672"/>
<polygon fill="none" stroke="#666666" points="25,-510 25,-770 109.75,-770 109.75,-510 25,-510"/>
</a>
</g>
</g>
<!-- Node4&#45;&gt;Node3 -->
<g id="edge3_Node000003_Node000004" class="edge">
<title>Node4&#45;&gt;Node3</title>
<g id="a_edge3_Node000003_Node000004"><a xlink:title=" ">
<path fill="none" stroke="#63b8ff" d="M67.38,-510.22C67.38,-495.96 67.38,-481.86 67.38,-468.74"/>
<polygon fill="none" stroke="#63b8ff" points="67.38,-468.88 63.38,-462.88 67.38,-456.88 71.38,-462.88 67.38,-468.88"/>
</a>
</g>
<text xml:space="preserve" text-anchor="start" x="70.38" y="-479.25" font-family="Helvetica,sans-Serif" font-size="10.00" fill="grey">&#45;data</text>
</g>
</g>
</svg>
