<?xml version="1.0" encoding="UTF-8" standalone="no"?>
<!DOCTYPE svg PUBLIC "-//W3C//DTD SVG 1.1//EN"
 "http://www.w3.org/Graphics/SVG/1.1/DTD/svg11.dtd">
<!-- Generated by graphviz version 14.1.5 (20260411.2331)
 -->
<!-- Title: Graph Legend Pages: 1 -->
<svg width="505pt" height="210pt"
 viewBox="0.00 0.00 505.00 210.00" xmlns="http://www.w3.org/2000/svg" xmlns:xlink="http://www.w3.org/1999/xlink">
<g id="graph0" class="graph" transform="scale(1 1) rotate(0) translate(4 206.4)">
<title>Graph Legend</title>
<!-- Node9 -->
<g id="Node000009" class="node">
<title>Node9</title>
<g id="a_Node000009"><a xlink:title=" ">
<polygon fill="#999999" stroke="#666666" points="290.5,-20 237,-20 237,0 290.5,0 290.5,-20"/>
<text xml:space="preserve" text-anchor="middle" x="263.75" y="-6.5" font-family="Helvetica,sans-Serif" font-size="10.00">Inherited</text>
</a>
</g>
</g>
<!-- Node10 -->
<g id="Node000010" class="node">
<title>Node10</title>
<g id="a_Node000010"><a xlink:title=" ">
<polygon fill="white" stroke="#666666" points="65.5,-99.6 0,-99.6 0,-79.6 65.5,-79.6 65.5,-99.6"/>
<text xml:space="preserve" text-anchor="middle" x="32.75" y="-86.1" font-family="Helvetica,sans-Serif" font-size="10.00">PublicBase</text>
</a>
</g>
</g>
<!-- Node10&#45;&gt;Node9 -->
<g id="edge1" class="edge">
<title>Node10&#45;&gt;Node9</title>
<g id="a_edge1"><a xlink:title=" ">
<path fill="none" stroke="#63b8ff" d="M60.76,-74.08C65.38,-71.91 70.16,-69.8 74.75,-68 131.05,-45.87 199.56,-27.16 236.68,-17.68"/>
<polygon fill="#63b8ff" stroke="#63b8ff" points="59.25,-70.92 51.81,-78.46 62.33,-77.21 59.25,-70.92"/>
</a>
</g>
</g>
<!-- Node11 -->
<g id="Node000011" class="node">
<title>Node11</title>
<g id="a_Node000011"><a xlink:title=" ">
<polygon fill="#fff0f0" stroke="red" points="62.5,-190.8 3,-190.8 3,-170.8 62.5,-170.8 62.5,-190.8"/>
<text xml:space="preserve" text-anchor="middle" x="32.75" y="-177.3" font-family="Helvetica,sans-Serif" font-size="10.00">Truncated</text>
</a>
</g>
</g>
<!-- Node11&#45;&gt;Node10 -->
<g id="edge2" class="edge">
<title>Node11&#45;&gt;Node10</title>
<g id="a_edge2"><a xlink:title=" ">
<path fill="none" stroke="#63b8ff" d="M32.75,-159.19C32.75,-140.51 32.75,-113.83 32.75,-99.89"/>
<polygon fill="#63b8ff" stroke="#63b8ff" points="29.25,-159.08 32.75,-169.08 36.25,-159.08 29.25,-159.08"/>
</a>
</g>
</g>
<!-- Node13 -->
<g id="node4" class="node">
<title>Node13</title>
<g id="a_node4"><a xlink:title=" ">
<polygon fill="white" stroke="#666666" points="164,-111.2 83.5,-111.2 83.5,-68 164,-68 164,-111.2"/>
<text xml:space="preserve" text-anchor="middle" x="123.75" y="-86.1" font-family="Helvetica,sans-Serif" font-size="10.00">ProtectedBase</text>
</a>
</g>
</g>
<!-- Node13&#45;&gt;Node9 -->
<g id="edge3" class="edge">
<title>Node13&#45;&gt;Node9</title>
<g id="a_edge3"><a xlink:title=" ">
<path fill="none" stroke="darkgreen" d="M171.69,-62.03C197.62,-47.66 228.05,-30.79 246.61,-20.5"/>
<polygon fill="darkgreen" stroke="darkgreen" points="170.01,-58.96 162.96,-66.87 173.4,-65.08 170.01,-58.96"/>
</a>
</g>
</g>
<!-- Node14 -->
<g id="node5" class="node">
<title>Node14</title>
<g id="a_node5"><a xlink:title=" ">
<polygon fill="white" stroke="#666666" points="251.38,-111.2 182.12,-111.2 182.12,-68 251.38,-68 251.38,-111.2"/>
<text xml:space="preserve" text-anchor="middle" x="216.75" y="-86.1" font-family="Helvetica,sans-Serif" font-size="10.00">PrivateBase</text>
</a>
</g>
</g>
<!-- Node14&#45;&gt;Node9 -->
<g id="edge4" class="edge">
<title>Node14&#45;&gt;Node9</title>
<g id="a_edge4"><a xlink:title=" ">
<path fill="none" stroke="#8b1a1a" d="M235.1,-58.3C243.31,-44.75 252.4,-29.75 258.09,-20.35"/>
<polygon fill="#8b1a1a" stroke="#8b1a1a" points="232.32,-56.14 230.13,-66.51 238.3,-59.77 232.32,-56.14"/>
</a>
</g>
</g>
<!-- Node15 -->
<g id="Node000015" class="node">
<title>Node15</title>
<g id="a_Node000015"><a xlink:title=" ">
<polygon fill="#e0e0e0" stroke="#999999" points="351.75,-99.6 269.75,-99.6 269.75,-79.6 351.75,-79.6 351.75,-99.6"/>
<text xml:space="preserve" text-anchor="middle" x="310.75" y="-86.1" font-family="Helvetica,sans-Serif" font-size="10.00">Undocumented</text>
</a>
</g>
</g>
<!-- Node15&#45;&gt;Node9 -->
<g id="edge5" class="edge">
<title>Node15&#45;&gt;Node9</title>
<g id="a_edge5"><a xlink:title=" ">
<path fill="none" stroke="#63b8ff" d="M299.28,-69.66C289.77,-53.96 276.66,-32.32 269.32,-20.19"/>
<polygon fill="#63b8ff" stroke="#63b8ff" points="296.22,-71.36 304.39,-78.1 302.2,-67.73 296.22,-71.36"/>
</a>
</g>
</g>
<!-- Node16 -->
<g id="node7" class="node">
<title>Node16</title>
<g id="a_node7"><a xlink:title=" ">
<polygon fill="white" stroke="#666666" points="440.12,-111.2 369.38,-111.2 369.38,-68 440.12,-68 440.12,-111.2"/>
<text xml:space="preserve" text-anchor="middle" x="404.75" y="-86.1" font-family="Helvetica,sans-Serif" font-size="10.00">Templ&lt; int &gt;</text>
</a>
</g>
</g>
<!-- Node16&#45;&gt;Node9 -->
<g id="edge6" class="edge">
<title>Node16&#45;&gt;Node9</title>
<g id="a_edge6"><a xlink:title=" ">
<path fill="none" stroke="#63b8ff" d="M359.23,-63.55C332.49,-48.83 300.25,-31.09 280.91,-20.44"/>
<polygon fill="#63b8ff" stroke="#63b8ff" points="357.4,-66.53 367.84,-68.29 360.77,-60.4 357.4,-66.53"/>
</a>
</g>
</g>
<!-- Node17 -->
<g id="node8" class="node">
<title>Node17</title>
<g id="a_node8"><a xlink:title=" ">
<polygon fill="white" stroke="#666666" points="437.5,-202.4 372,-202.4 372,-159.2 437.5,-159.2 437.5,-202.4"/>
<text xml:space="preserve" text-anchor="middle" x="404.75" y="-177.3" font-family="Helvetica,sans-Serif" font-size="10.00">Templ&lt; T &gt;</text>
</a>
</g>
</g>
<!-- Node17&#45;&gt;Node16 -->
<g id="edge7" class="edge">
<title>Node17&#45;&gt;Node16</title>
<g id="a_edge7"><a xlink:title=" ">
<path fill="none" stroke="orange" stroke-dasharray="5,2" d="M404.75,-147.65C404.75,-135.61 404.75,-122.25 404.75,-111.49"/>
<polygon fill="orange" stroke="orange" points="401.25,-147.6 404.75,-157.6 408.25,-147.6 401.25,-147.6"/>
</a>
</g>
<text xml:space="preserve" text-anchor="middle" x="419" y="-131.7" font-family="Helvetica,sans-Serif" font-size="10.00" fill="grey">&lt; int &gt;</text>
</g>
<!-- Node18 -->
<g id="node9" class="node">
<title>Node18</title>
<g id="a_node9"><a xlink:title=" ">
<polygon fill="white" stroke="#666666" points="497.38,-111.2 458.12,-111.2 458.12,-68 497.38,-68 497.38,-111.2"/>
<text xml:space="preserve" text-anchor="middle" x="477.75" y="-86.1" font-family="Helvetica,sans-Serif" font-size="10.00">Used</text>
</a>
</g>
</g>
<!-- Node18&#45;&gt;Node9 -->
<g id="edge8" class="edge">
<title>Node18&#45;&gt;Node9</title>
<g id="a_edge8"><a xlink:title=" ">
<path fill="none" stroke="#9a32cd" stroke-dasharray="5,2" d="M447.43,-68.1C388.23,-39.91 325.75,-24.16 290.8,-16.48"/>
<polygon fill="#9a32cd" stroke="#9a32cd" points="445.78,-71.19 456.3,-72.45 448.87,-64.91 445.78,-71.19"/>
</a>
</g>
<text xml:space="preserve" text-anchor="middle" x="434.91" y="-40.5" font-family="Helvetica,sans-Serif" font-size="10.00" fill="grey">m_usedClass</text>
</g>
</g>
</svg>
