<?xml version="1.0" encoding="UTF-8" standalone="no"?>
<!DOCTYPE svg PUBLIC "-//W3C//DTD SVG 1.1//EN"
 "http://www.w3.org/Graphics/SVG/1.1/DTD/svg11.dtd">
<!-- Generated by graphviz version 14.1.5 (20260411.2331)
 -->
<!-- Title: Stm32f1xx_system Pages: 1 -->
<svg width="463pt" height="256pt"
 viewBox="0.00 0.00 463.00 256.00" xmlns="http://www.w3.org/2000/svg" xmlns:xlink="http://www.w3.org/1999/xlink">
<g id="graph0" class="graph" transform="scale(1 1) rotate(0) translate(4 252)">
<title>Stm32f1xx_system</title>
<!-- Node2 -->
<g id="Node000002" class="node">
<title>Node2</title>
<g id="a_Node000002"><a xlink:href="group___c_m_s_i_s.html" target="_top" xlink:title=" ">
<polygon fill="white" stroke="#666666" points="48.25,-134 0,-134 0,-114 48.25,-114 48.25,-134"/>
<text xml:space="preserve" text-anchor="middle" x="24.12" y="-120.5" font-family="Helvetica,sans-Serif" font-size="10.00">CMSIS</text>
</a>
</g>
</g>
<!-- Node1 -->
<g id="Node000001" class="node">
<title>Node1</title>
<g id="a_Node000001"><a xlink:title=" ">
<polygon fill="#999999" stroke="#666666" points="185,-134 84.25,-134 84.25,-114 185,-114 185,-134"/>
<text xml:space="preserve" text-anchor="middle" x="134.62" y="-120.5" font-family="Helvetica,sans-Serif" font-size="10.00">Stm32f1xx_system</text>
</a>
</g>
</g>
<!-- Node2&#45;&gt;Node1 -->
<g id="edge1" class="edge">
<title>Node2&#45;&gt;Node1</title>
<path fill="none" stroke="black" d="M60.02,-124C67.62,-124 75.8,-124 83.84,-124"/>
<polygon fill="black" stroke="black" points="60.18,-120.5 50.18,-124 60.18,-127.5 60.18,-120.5"/>
</g>
<!-- Node5 -->
<g id="Node000005" class="node">
<title>Node5</title>
<g id="a_Node000005"><a xlink:href="group___s_t_m32_f1xx___system___private___defines.html" target="_top" xlink:title=" ">
<polygon fill="white" stroke="#666666" points="429.75,-248 246.5,-248 246.5,-228 429.75,-228 429.75,-248"/>
<text xml:space="preserve" text-anchor="middle" x="338.12" y="-234.5" font-family="Helvetica,sans-Serif" font-size="10.00">STM32F1xx_System_Private_Defines</text>
</a>
</g>
</g>
<!-- Node8 -->
<g id="Node000008" class="node">
<title>Node8</title>
<g id="a_Node000008"><a xlink:href="group___s_t_m32_f1xx___system___private___function_prototypes.html" target="_top" xlink:title=" ">
<polygon fill="white" stroke="#666666" points="455.25,-210 221,-210 221,-190 455.25,-190 455.25,-210"/>
<text xml:space="preserve" text-anchor="middle" x="338.12" y="-196.5" font-family="Helvetica,sans-Serif" font-size="10.00">STM32F1xx_System_Private_FunctionPrototypes</text>
</a>
</g>
</g>
<!-- Node9 -->
<g id="Node000009" class="node">
<title>Node9</title>
<g id="a_Node000009"><a xlink:href="group___s_t_m32_f1xx___system___private___functions.html" target="_top" xlink:title=" ">
<polygon fill="white" stroke="#666666" points="434.25,-172 242,-172 242,-152 434.25,-152 434.25,-172"/>
<text xml:space="preserve" text-anchor="middle" x="338.12" y="-158.5" font-family="Helvetica,sans-Serif" font-size="10.00">STM32F1xx_System_Private_Functions</text>
</a>
</g>
</g>
<!-- Node3 -->
<g id="Node000003" class="node">
<title>Node3</title>
<g id="a_Node000003"><a xlink:href="group___s_t_m32_f1xx___system___private___includes.html" target="_top" xlink:title=" ">
<polygon fill="white" stroke="#666666" points="431.25,-134 245,-134 245,-114 431.25,-114 431.25,-134"/>
<text xml:space="preserve" text-anchor="middle" x="338.12" y="-120.5" font-family="Helvetica,sans-Serif" font-size="10.00">STM32F1xx_System_Private_Includes</text>
</a>
</g>
</g>
<!-- Node6 -->
<g id="Node000006" class="node">
<title>Node6</title>
<g id="a_Node000006"><a xlink:href="group___s_t_m32_f1xx___system___private___macros.html" target="_top" xlink:title=" ">
<polygon fill="white" stroke="#666666" points="429,-96 247.25,-96 247.25,-76 429,-76 429,-96"/>
<text xml:space="preserve" text-anchor="middle" x="338.12" y="-82.5" font-family="Helvetica,sans-Serif" font-size="10.00">STM32F1xx_System_Private_Macros</text>
</a>
</g>
</g>
<!-- Node4 -->
<g id="Node000004" class="node">
<title>Node4</title>
<g id="a_Node000004"><a xlink:href="group___s_t_m32_f1xx___system___private___types_definitions.html" target="_top" xlink:title=" ">
<polygon fill="white" stroke="#666666" points="449.25,-58 227,-58 227,-38 449.25,-38 449.25,-58"/>
<text xml:space="preserve" text-anchor="middle" x="338.12" y="-44.5" font-family="Helvetica,sans-Serif" font-size="10.00">STM32F1xx_System_Private_TypesDefinitions</text>
</a>
</g>
</g>
<!-- Node7 -->
<g id="Node000007" class="node">
<title>Node7</title>
<g id="a_Node000007"><a xlink:href="group___s_t_m32_f1xx___system___private___variables.html" target="_top" xlink:title=" ">
<polygon fill="white" stroke="#666666" points="432.75,-20 243.5,-20 243.5,0 432.75,0 432.75,-20"/>
<text xml:space="preserve" text-anchor="middle" x="338.12" y="-6.5" font-family="Helvetica,sans-Serif" font-size="10.00">STM32F1xx_System_Private_Variables</text>
</a>
</g>
</g>
<!-- Node1&#45;&gt;Node5 -->
<g id="edge4" class="edge">
<title>Node1&#45;&gt;Node5</title>
<path fill="none" stroke="black" d="M147.7,-144.13C162.17,-166.34 188.56,-201.26 221,-219 228.8,-223.26 237.3,-226.63 246.04,-229.27"/>
<polygon fill="black" stroke="black" points="150.67,-142.28 142.39,-135.67 144.74,-146 150.67,-142.28"/>
</g>
<!-- Node1&#45;&gt;Node8 -->
<g id="edge7" class="edge">
<title>Node1&#45;&gt;Node8</title>
<path fill="none" stroke="black" d="M156.14,-141.39C172.61,-154.39 196.88,-171.49 221,-181 229.65,-184.41 238.89,-187.21 248.24,-189.5"/>
<polygon fill="black" stroke="black" points="158.56,-138.84 148.59,-135.25 154.14,-144.27 158.56,-138.84"/>
</g>
<!-- Node1&#45;&gt;Node9 -->
<g id="edge8" class="edge">
<title>Node1&#45;&gt;Node9</title>
<path fill="none" stroke="black" d="M191.25,-136.86C201.14,-139.01 211.36,-141.14 221,-143 236.55,-146 253.32,-148.92 269.16,-151.54"/>
<polygon fill="black" stroke="black" points="192.27,-133.5 181.76,-134.77 190.77,-140.34 192.27,-133.5"/>
</g>
<!-- Node1&#45;&gt;Node3 -->
<g id="edge2" class="edge">
<title>Node1&#45;&gt;Node3</title>
<path fill="none" stroke="black" d="M196.7,-124C211.84,-124 228.4,-124 244.67,-124"/>
<polygon fill="black" stroke="black" points="196.95,-120.5 186.95,-124 196.95,-127.5 196.95,-120.5"/>
</g>
<!-- Node1&#45;&gt;Node6 -->
<g id="edge5" class="edge">
<title>Node1&#45;&gt;Node6</title>
<path fill="none" stroke="black" d="M191.25,-111.14C201.14,-108.99 211.36,-106.86 221,-105 236.55,-102 253.32,-99.08 269.16,-96.46"/>
<polygon fill="black" stroke="black" points="190.77,-107.66 181.76,-113.23 192.27,-114.5 190.77,-107.66"/>
</g>
<!-- Node1&#45;&gt;Node4 -->
<g id="edge3" class="edge">
<title>Node1&#45;&gt;Node4</title>
<path fill="none" stroke="black" d="M156.14,-106.61C172.61,-93.61 196.88,-76.51 221,-67 229.65,-63.59 238.89,-60.79 248.24,-58.5"/>
<polygon fill="black" stroke="black" points="154.14,-103.73 148.59,-112.75 158.56,-109.16 154.14,-103.73"/>
</g>
<!-- Node1&#45;&gt;Node7 -->
<g id="edge6" class="edge">
<title>Node1&#45;&gt;Node7</title>
<path fill="none" stroke="black" d="M147.7,-103.87C162.17,-81.66 188.56,-46.74 221,-29 227.9,-25.23 235.35,-22.16 243.03,-19.67"/>
<polygon fill="black" stroke="black" points="144.74,-102 142.39,-112.33 150.67,-105.72 144.74,-102"/>
</g>
</g>
</svg>
