<?xml version="1.0" encoding="UTF-8" standalone="no"?>
<!DOCTYPE svg PUBLIC "-//W3C//DTD SVG 1.1//EN"
 "http://www.w3.org/Graphics/SVG/1.1/DTD/svg11.dtd">
<!-- Generated by graphviz version 14.1.5 (20260411.2331)
 -->
<!-- Title: Inc/main.h Pages: 1 -->
<svg width="532pt" height="196pt"
 viewBox="0.00 0.00 532.00 196.00" xmlns="http://www.w3.org/2000/svg" xmlns:xlink="http://www.w3.org/1999/xlink">
<g id="graph0" class="graph" transform="scale(1 1) rotate(0) translate(4 192)">
<title>Inc/main.h</title>
<!-- Node1 -->
<g id="Node000001" class="node">
<title>Node1</title>
<g id="a_Node000001"><a xlink:title=": Header for main.c file. This file contains the common defines of the application.">
<polygon fill="#999999" stroke="#666666" points="242.25,-188 180.5,-188 180.5,-168 242.25,-168 242.25,-188"/>
<text xml:space="preserve" text-anchor="middle" x="211.38" y="-174.5" font-family="Helvetica,sans-Serif" font-size="10.00">Inc/main.h</text>
</a>
</g>
</g>
<!-- Node2 -->
<g id="Node000002" class="node">
<title>Node2</title>
<g id="a_Node000002"><a xlink:href="_rx_class_8h.html" target="_top" xlink:title=" ">
<polygon fill="white" stroke="#666666" points="182.88,-132 103.88,-132 103.88,-112 182.88,-112 182.88,-132"/>
<text xml:space="preserve" text-anchor="middle" x="143.38" y="-118.5" font-family="Helvetica,sans-Serif" font-size="10.00">Inc/RxClass.h</text>
</a>
</g>
</g>
<!-- Node1&#45;&gt;Node2 -->
<g id="edge1_Node000001_Node000002" class="edge">
<title>Node1&#45;&gt;Node2</title>
<g id="a_edge1_Node000001_Node000002"><a xlink:title=" ">
<path fill="none" stroke="#63b8ff" d="M184.94,-160.95C172.24,-151.61 158.15,-140.16 149.84,-132.3"/>
<polygon fill="#63b8ff" stroke="#63b8ff" points="182.85,-163.77 193.03,-166.72 186.92,-158.06 182.85,-163.77"/>
</a>
</g>
</g>
<!-- Node3 -->
<g id="Node000003" class="node">
<title>Node3</title>
<g id="a_Node000003"><a xlink:href="screen_handle_8hpp.html" target="_top" xlink:title=" ">
<polygon fill="white" stroke="#666666" points="112,-76 0.75,-76 0.75,-56 112,-56 112,-76"/>
<text xml:space="preserve" text-anchor="middle" x="56.38" y="-62.5" font-family="Helvetica,sans-Serif" font-size="10.00">Inc/screenHandle.hpp</text>
</a>
</g>
</g>
<!-- Node1&#45;&gt;Node3 -->
<g id="edge7_Node000001_Node000003" class="edge">
<title>Node1&#45;&gt;Node3</title>
<g id="a_edge7_Node000001_Node000003"><a xlink:title=" ">
<path fill="none" stroke="#63b8ff" d="M169.34,-167.89C145.61,-161.1 116.55,-149.84 95.38,-132 77.06,-116.57 65.07,-90.22 59.68,-76.28"/>
<polygon fill="#63b8ff" stroke="#63b8ff" points="168.14,-171.19 178.7,-170.4 169.95,-164.43 168.14,-171.19"/>
</a>
</g>
</g>
<!-- Node4 -->
<g id="Node000004" class="node">
<title>Node4</title>
<g id="a_Node000004"><a xlink:href="main_8cpp.html" target="_top" xlink:title=" ">
<polygon fill="white" stroke="#666666" points="245.25,-20 171.5,-20 171.5,0 245.25,0 245.25,-20"/>
<text xml:space="preserve" text-anchor="middle" x="208.38" y="-6.5" font-family="Helvetica,sans-Serif" font-size="10.00">Src/main.cpp</text>
</a>
</g>
</g>
<!-- Node1&#45;&gt;Node4 -->
<g id="edge9_Node000001_Node000004" class="edge">
<title>Node1&#45;&gt;Node4</title>
<g id="a_edge9_Node000001_Node000004"><a xlink:title=" ">
<path fill="none" stroke="#63b8ff" d="M219.09,-157.23C227.44,-133.14 238.53,-91.27 230.38,-56 227.32,-42.78 219.82,-28.96 214.42,-20.18"/>
<polygon fill="#63b8ff" stroke="#63b8ff" points="215.89,-155.79 215.72,-166.39 222.46,-158.21 215.89,-155.79"/>
</a>
</g>
</g>
<!-- Node6 -->
<g id="Node000006" class="node">
<title>Node6</title>
<g id="a_Node000006"><a xlink:href="_rx_class_8cpp.html" target="_top" xlink:title=" ">
<polygon fill="white" stroke="#666666" points="220.88,-76 129.88,-76 129.88,-56 220.88,-56 220.88,-76"/>
<text xml:space="preserve" text-anchor="middle" x="175.38" y="-62.5" font-family="Helvetica,sans-Serif" font-size="10.00">Src/RxClass.cpp</text>
</a>
</g>
</g>
<!-- Node1&#45;&gt;Node6 -->
<g id="edge8_Node000001_Node000006" class="edge">
<title>Node1&#45;&gt;Node6</title>
<g id="a_edge8_Node000001_Node000006"><a xlink:title=" ">
<path fill="none" stroke="#63b8ff" d="M205.9,-156.78C202.3,-143.89 197.35,-126.87 192.38,-112 188.19,-99.49 182.69,-85.28 179.1,-76.23"/>
<polygon fill="#63b8ff" stroke="#63b8ff" points="202.46,-157.5 208.49,-166.21 209.21,-155.64 202.46,-157.5"/>
</a>
</g>
</g>
<!-- Node7 -->
<g id="Node000007" class="node">
<title>Node7</title>
<g id="a_Node000007"><a xlink:href="stm32f1xx__hal__msp_8c.html" target="_top" xlink:title="This file provides code for the MSP Initialization and de&#45;Initialization codes.">
<polygon fill="white" stroke="#666666" points="407.38,-132 277.38,-132 277.38,-112 407.38,-112 407.38,-132"/>
<text xml:space="preserve" text-anchor="middle" x="342.38" y="-118.5" font-family="Helvetica,sans-Serif" font-size="10.00">Src/stm32f1xx_hal_msp.c</text>
</a>
</g>
</g>
<!-- Node1&#45;&gt;Node7 -->
<g id="edge10_Node000001_Node000007" class="edge">
<title>Node1&#45;&gt;Node7</title>
<g id="a_edge10_Node000001_Node000007"><a xlink:title=" ">
<path fill="none" stroke="#63b8ff" d="M244.68,-163.27C268.05,-153.64 298.69,-141.01 319.38,-132.48"/>
<polygon fill="#63b8ff" stroke="#63b8ff" points="243.5,-159.97 235.59,-167.02 246.17,-166.44 243.5,-159.97"/>
</a>
</g>
</g>
<!-- Node8 -->
<g id="Node000008" class="node">
<title>Node8</title>
<g id="a_Node000008"><a xlink:href="stm32f1xx__it_8c.html" target="_top" xlink:title="Interrupt Service Routines.">
<polygon fill="white" stroke="#666666" points="523.62,-132 425.12,-132 425.12,-112 523.62,-112 523.62,-132"/>
<text xml:space="preserve" text-anchor="middle" x="474.38" y="-118.5" font-family="Helvetica,sans-Serif" font-size="10.00">Src/stm32f1xx_it.c</text>
</a>
</g>
</g>
<!-- Node1&#45;&gt;Node8 -->
<g id="edge11_Node000001_Node000008" class="edge">
<title>Node1&#45;&gt;Node8</title>
<g id="a_edge11_Node000001_Node000008"><a xlink:title=" ">
<path fill="none" stroke="#63b8ff" d="M253.76,-168.3C301.52,-158.49 378.92,-142.6 428.19,-132.48"/>
<polygon fill="#63b8ff" stroke="#63b8ff" points="253.15,-164.85 244.06,-170.29 254.56,-171.71 253.15,-164.85"/>
</a>
</g>
</g>
<!-- Node2&#45;&gt;Node1 -->
<g id="edge2_Node000002_Node000001" class="edge">
<title>Node2&#45;&gt;Node1</title>
<g id="a_edge2_Node000002_Node000001"><a xlink:title=" ">
<path fill="none" stroke="#63b8ff" d="M169.87,-139.09C182.5,-148.38 196.48,-159.74 204.8,-167.59"/>
<polygon fill="#63b8ff" stroke="#63b8ff" points="172,-136.31 161.83,-133.36 167.94,-142.01 172,-136.31"/>
</a>
</g>
</g>
<!-- Node2&#45;&gt;Node3 -->
<g id="edge3_Node000002_Node000003" class="edge">
<title>Node2&#45;&gt;Node3</title>
<g id="a_edge3_Node000002_Node000003"><a xlink:title=" ">
<path fill="none" stroke="#63b8ff" d="M118.47,-105.54C103.37,-96.17 84.58,-84.51 71.65,-76.48"/>
<polygon fill="#63b8ff" stroke="#63b8ff" points="116.59,-108.5 126.93,-110.8 120.28,-102.55 116.59,-108.5"/>
</a>
</g>
</g>
<!-- Node2&#45;&gt;Node6 -->
<g id="edge6_Node000002_Node000006" class="edge">
<title>Node2&#45;&gt;Node6</title>
<g id="a_edge6_Node000002_Node000006"><a xlink:title=" ">
<path fill="none" stroke="#63b8ff" d="M154.71,-101.87C159.86,-93.19 165.71,-83.32 169.86,-76.3"/>
<polygon fill="#63b8ff" stroke="#63b8ff" points="151.81,-99.9 149.72,-110.29 157.83,-103.47 151.81,-99.9"/>
</a>
</g>
</g>
<!-- Node3&#45;&gt;Node4 -->
<g id="edge4_Node000003_Node000004" class="edge">
<title>Node3&#45;&gt;Node4</title>
<g id="a_edge4_Node000003_Node000004"><a xlink:title=" ">
<path fill="none" stroke="#63b8ff" d="M93.55,-51.79C120.84,-42.1 157.25,-29.16 181.69,-20.48"/>
<polygon fill="#63b8ff" stroke="#63b8ff" points="92.53,-48.44 84.28,-55.09 94.87,-55.04 92.53,-48.44"/>
</a>
</g>
</g>
<!-- Node5 -->
<g id="Node000005" class="node">
<title>Node5</title>
<g id="a_Node000005"><a xlink:href="screen_handle_8cpp.html" target="_top" xlink:title=" ">
<polygon fill="white" stroke="#666666" points="112.75,-20 0,-20 0,0 112.75,0 112.75,-20"/>
<text xml:space="preserve" text-anchor="middle" x="56.38" y="-6.5" font-family="Helvetica,sans-Serif" font-size="10.00">Src/screenHandle.cpp</text>
</a>
</g>
</g>
<!-- Node3&#45;&gt;Node5 -->
<g id="edge5_Node000003_Node000005" class="edge">
<title>Node3&#45;&gt;Node5</title>
<g id="a_edge5_Node000003_Node000005"><a xlink:title=" ">
<path fill="none" stroke="#63b8ff" d="M56.38,-44.13C56.38,-35.9 56.38,-26.85 56.38,-20.3"/>
<polygon fill="#63b8ff" stroke="#63b8ff" points="52.88,-44.08 56.38,-54.08 59.88,-44.08 52.88,-44.08"/>
</a>
</g>
</g>
</g>
</svg>
