<?xml version="1.0" encoding="UTF-8" standalone="no"?>
<!DOCTYPE svg PUBLIC "-//W3C//DTD SVG 1.1//EN"
 "http://www.w3.org/Graphics/SVG/1.1/DTD/svg11.dtd">
<!-- Generated by graphviz version 14.1.5 (20260411.2331)
 -->
<!-- Title: Src/main.cpp Pages: 1 -->
<svg width="384pt" height="252pt"
 viewBox="0.00 0.00 384.00 252.00" xmlns="http://www.w3.org/2000/svg" xmlns:xlink="http://www.w3.org/1999/xlink">
<g id="graph0" class="graph" transform="scale(1 1) rotate(0) translate(4 248)">
<title>Src/main.cpp</title>
<!-- Node1 -->
<g id="Node000001" class="node">
<title>Node1</title>
<g id="a_Node000001"><a xlink:title=" ">
<polygon fill="#999999" stroke="#666666" points="281.68,-244 207.93,-244 207.93,-224 281.68,-224 281.68,-244"/>
<text xml:space="preserve" text-anchor="middle" x="244.8" y="-230.5" font-family="Helvetica,sans-Serif" font-size="10.00">Src/main.cpp</text>
</a>
</g>
</g>
<!-- Node2 -->
<g id="Node000002" class="node">
<title>Node2</title>
<g id="a_Node000002"><a xlink:href="main_8h.html" target="_top" xlink:title=": Header for main.c file. This file contains the common defines of the application.">
<polygon fill="white" stroke="#666666" points="242.43,-132 197.18,-132 197.18,-112 242.43,-112 242.43,-132"/>
<text xml:space="preserve" text-anchor="middle" x="219.8" y="-118.5" font-family="Helvetica,sans-Serif" font-size="10.00">main.h</text>
</a>
</g>
</g>
<!-- Node1&#45;&gt;Node2 -->
<g id="edge1_Node000001_Node000002" class="edge">
<title>Node1&#45;&gt;Node2</title>
<g id="a_edge1_Node000001_Node000002"><a xlink:title=" ">
<path fill="none" stroke="#63b8ff" d="M242.67,-223.62C238.65,-205.92 229.86,-167.24 224.42,-143.32"/>
<polygon fill="#63b8ff" stroke="#63b8ff" points="227.89,-142.81 222.26,-133.83 221.07,-144.36 227.89,-142.81"/>
</a>
</g>
</g>
<!-- Node6 -->
<g id="Node000006" class="node">
<title>Node6</title>
<g id="a_Node000006"><a xlink:href="screen_handle_8hpp.html" target="_top" xlink:title=" ">
<polygon fill="white" stroke="#666666" points="167.18,-188 72.43,-188 72.43,-168 167.18,-168 167.18,-188"/>
<text xml:space="preserve" text-anchor="middle" x="119.8" y="-174.5" font-family="Helvetica,sans-Serif" font-size="10.00">screenHandle.hpp</text>
</a>
</g>
</g>
<!-- Node1&#45;&gt;Node6 -->
<g id="edge6_Node000001_Node000006" class="edge">
<title>Node1&#45;&gt;Node6</title>
<g id="a_edge6_Node000001_Node000006"><a xlink:title=" ">
<path fill="none" stroke="#63b8ff" d="M223.03,-223.59C203.43,-215.13 174.38,-202.58 152.08,-192.94"/>
<polygon fill="#63b8ff" stroke="#63b8ff" points="153.7,-189.83 143.14,-189.08 150.93,-196.26 153.7,-189.83"/>
</a>
</g>
</g>
<!-- Node10 -->
<g id="Node000010" class="node">
<title>Node10</title>
<g id="a_Node000010"><a xlink:href="screen_8h.html" target="_top" xlink:title=" ">
<polygon fill="white" stroke="#666666" points="299.55,-188 246.05,-188 246.05,-168 299.55,-168 299.55,-188"/>
<text xml:space="preserve" text-anchor="middle" x="272.8" y="-174.5" font-family="Helvetica,sans-Serif" font-size="10.00">screen.h</text>
</a>
</g>
</g>
<!-- Node1&#45;&gt;Node10 -->
<g id="edge12_Node000001_Node000010" class="edge">
<title>Node1&#45;&gt;Node10</title>
<g id="a_edge12_Node000001_Node000010"><a xlink:title=" ">
<path fill="none" stroke="#63b8ff" d="M249.68,-223.59C253.29,-216.63 258.34,-206.89 262.8,-198.29"/>
<polygon fill="#63b8ff" stroke="#63b8ff" points="265.79,-200.13 267.28,-189.64 259.57,-196.91 265.79,-200.13"/>
</a>
</g>
</g>
<!-- Node11 -->
<g id="Node000011" class="node">
<title>Node11</title>
<g id="a_Node000011"><a xlink:title=" ">
<polygon fill="#e0e0e0" stroke="#999999" points="376.18,-188 317.43,-188 317.43,-168 376.18,-168 376.18,-188"/>
<text xml:space="preserve" text-anchor="middle" x="346.8" y="-174.5" font-family="Helvetica,sans-Serif" font-size="10.00">stdexcept</text>
</a>
</g>
</g>
<!-- Node1&#45;&gt;Node11 -->
<g id="edge14_Node000001_Node000011" class="edge">
<title>Node1&#45;&gt;Node11</title>
<g id="a_edge14_Node000001_Node000011"><a xlink:title=" ">
<path fill="none" stroke="#63b8ff" d="M262.57,-223.59C278.12,-215.36 300.98,-203.26 318.97,-193.74"/>
<polygon fill="#63b8ff" stroke="#63b8ff" points="320.36,-196.96 327.56,-189.19 317.08,-190.77 320.36,-196.96"/>
</a>
</g>
</g>
<!-- Node3 -->
<g id="Node000003" class="node">
<title>Node3</title>
<g id="a_Node000003"><a xlink:title=" ">
<polygon fill="#e0e0e0" stroke="#999999" points="316.8,-76 228.8,-76 228.8,-56 316.8,-56 316.8,-76"/>
<text xml:space="preserve" text-anchor="middle" x="272.8" y="-62.5" font-family="Helvetica,sans-Serif" font-size="10.00">stm32f1xx_hal.h</text>
</a>
</g>
</g>
<!-- Node2&#45;&gt;Node3 -->
<g id="edge2_Node000002_Node000003" class="edge">
<title>Node2&#45;&gt;Node3</title>
<g id="a_edge2_Node000002_Node000003"><a xlink:title=" ">
<path fill="none" stroke="#63b8ff" d="M229.03,-111.59C236.41,-104.08 246.94,-93.35 255.82,-84.3"/>
<polygon fill="#63b8ff" stroke="#63b8ff" points="258.11,-86.97 262.62,-77.38 253.11,-82.06 258.11,-86.97"/>
</a>
</g>
</g>
<!-- Node4 -->
<g id="Node000004" class="node">
<title>Node4</title>
<g id="a_Node000004"><a xlink:href="_rx_class_8h.html" target="_top" xlink:title=" ">
<polygon fill="white" stroke="#666666" points="211.05,-76 148.55,-76 148.55,-56 211.05,-56 211.05,-76"/>
<text xml:space="preserve" text-anchor="middle" x="179.8" y="-62.5" font-family="Helvetica,sans-Serif" font-size="10.00">RxClass.h</text>
</a>
</g>
</g>
<!-- Node2&#45;&gt;Node4 -->
<g id="edge3_Node000002_Node000004" class="edge">
<title>Node2&#45;&gt;Node4</title>
<g id="a_edge3_Node000002_Node000004"><a xlink:title=" ">
<path fill="none" stroke="#63b8ff" d="M207.57,-111.59C200.94,-104.55 193.22,-94.67 187.4,-86"/>
<polygon fill="#63b8ff" stroke="#63b8ff" points="190.45,-84.28 182.24,-77.59 184.48,-87.94 190.45,-84.28"/>
</a>
</g>
</g>
<!-- Node4&#45;&gt;Node2 -->
<g id="edge4_Node000004_Node000002" class="edge">
<title>Node4&#45;&gt;Node2</title>
<g id="a_edge4_Node000004_Node000002"><a xlink:title=" ">
<path fill="none" stroke="#63b8ff" d="M191.94,-76.3C198.56,-83.32 206.28,-93.19 212.12,-101.87"/>
<polygon fill="#63b8ff" stroke="#63b8ff" points="209.09,-103.62 217.31,-110.3 215.05,-99.95 209.09,-103.62"/>
</a>
</g>
</g>
<!-- Node5 -->
<g id="Node000005" class="node">
<title>Node5</title>
<g id="a_Node000005"><a xlink:title=" ">
<polygon fill="#e0e0e0" stroke="#999999" points="202.43,-20 157.18,-20 157.18,0 202.43,0 202.43,-20"/>
<text xml:space="preserve" text-anchor="middle" x="179.8" y="-6.5" font-family="Helvetica,sans-Serif" font-size="10.00">cstdint</text>
</a>
</g>
</g>
<!-- Node4&#45;&gt;Node5 -->
<g id="edge5_Node000004_Node000005" class="edge">
<title>Node4&#45;&gt;Node5</title>
<g id="a_edge5_Node000004_Node000005"><a xlink:title=" ">
<path fill="none" stroke="#63b8ff" d="M179.8,-55.59C179.8,-49.01 179.8,-39.96 179.8,-31.73"/>
<polygon fill="#63b8ff" stroke="#63b8ff" points="183.3,-31.81 179.8,-21.81 176.3,-31.81 183.3,-31.81"/>
</a>
</g>
</g>
<!-- Node6&#45;&gt;Node2 -->
<g id="edge7_Node000006_Node000002" class="edge">
<title>Node6&#45;&gt;Node2</title>
<g id="a_edge7_Node000006_Node000002"><a xlink:title=" ">
<path fill="none" stroke="#63b8ff" d="M137.22,-167.59C152.47,-159.36 174.88,-147.26 192.51,-137.74"/>
<polygon fill="#63b8ff" stroke="#63b8ff" points="193.78,-141.03 200.92,-133.2 190.45,-134.87 193.78,-141.03"/>
</a>
</g>
</g>
<!-- Node6&#45;&gt;Node4 -->
<g id="edge10_Node000006_Node000004" class="edge">
<title>Node6&#45;&gt;Node4</title>
<g id="a_edge10_Node000006_Node000004"><a xlink:title=" ">
<path fill="none" stroke="#63b8ff" d="M72.02,-168.04C31.74,-158.32 -16.1,-140.28 5.8,-112 21.74,-91.42 90.82,-78.55 137,-72.08"/>
<polygon fill="#63b8ff" stroke="#63b8ff" points="137.26,-75.58 146.7,-70.78 136.32,-68.64 137.26,-75.58"/>
</a>
</g>
</g>
<!-- Node7 -->
<g id="Node000007" class="node">
<title>Node7</title>
<g id="a_Node000007"><a xlink:title=" ">
<polygon fill="#e0e0e0" stroke="#999999" points="179.3,-132 136.3,-132 136.3,-112 179.3,-112 179.3,-132"/>
<text xml:space="preserve" text-anchor="middle" x="157.8" y="-118.5" font-family="Helvetica,sans-Serif" font-size="10.00">vector</text>
</a>
</g>
</g>
<!-- Node6&#45;&gt;Node7 -->
<g id="edge8_Node000006_Node000007" class="edge">
<title>Node6&#45;&gt;Node7</title>
<g id="a_edge8_Node000006_Node000007"><a xlink:title=" ">
<path fill="none" stroke="#63b8ff" d="M126.42,-167.59C131.49,-160.39 138.64,-150.23 144.83,-141.43"/>
<polygon fill="#63b8ff" stroke="#63b8ff" points="147.5,-143.73 150.39,-133.54 141.77,-139.7 147.5,-143.73"/>
</a>
</g>
</g>
<!-- Node8 -->
<g id="Node000008" class="node">
<title>Node8</title>
<g id="a_Node000008"><a xlink:title=" ">
<polygon fill="#e0e0e0" stroke="#999999" points="54.8,-132 14.8,-132 14.8,-112 54.8,-112 54.8,-132"/>
<text xml:space="preserve" text-anchor="middle" x="34.8" y="-118.5" font-family="Helvetica,sans-Serif" font-size="10.00">string</text>
</a>
</g>
</g>
<!-- Node6&#45;&gt;Node8 -->
<g id="edge9_Node000006_Node000008" class="edge">
<title>Node6&#45;&gt;Node8</title>
<g id="a_edge9_Node000006_Node000008"><a xlink:title=" ">
<path fill="none" stroke="#63b8ff" d="M105,-167.59C92.4,-159.59 74.05,-147.93 59.27,-138.54"/>
<polygon fill="#63b8ff" stroke="#63b8ff" points="61.32,-135.7 51,-133.29 57.57,-141.61 61.32,-135.7"/>
</a>
</g>
</g>
<!-- Node9 -->
<g id="Node000009" class="node">
<title>Node9</title>
<g id="a_Node000009"><a xlink:title=" ">
<polygon fill="#e0e0e0" stroke="#999999" points="118.43,-132 73.18,-132 73.18,-112 118.43,-112 118.43,-132"/>
<text xml:space="preserve" text-anchor="middle" x="95.8" y="-118.5" font-family="Helvetica,sans-Serif" font-size="10.00">stdio.h</text>
</a>
</g>
</g>
<!-- Node6&#45;&gt;Node9 -->
<g id="edge11_Node000006_Node000009" class="edge">
<title>Node6&#45;&gt;Node9</title>
<g id="a_edge11_Node000006_Node000009"><a xlink:title=" ">
<path fill="none" stroke="#63b8ff" d="M115.62,-167.59C112.56,-160.7 108.29,-151.1 104.5,-142.57"/>
<polygon fill="#63b8ff" stroke="#63b8ff" points="107.81,-141.4 100.55,-133.68 101.41,-144.24 107.81,-141.4"/>
</a>
</g>
</g>
<!-- Node10&#45;&gt;Node3 -->
<g id="edge13_Node000010_Node000003" class="edge">
<title>Node10&#45;&gt;Node3</title>
<g id="a_edge13_Node000010_Node000003"><a xlink:title=" ">
<path fill="none" stroke="#63b8ff" d="M272.8,-167.62C272.8,-150.01 272.8,-111.59 272.8,-87.65"/>
<polygon fill="#63b8ff" stroke="#63b8ff" points="276.3,-87.87 272.8,-77.87 269.3,-87.87 276.3,-87.87"/>
</a>
</g>
</g>
</g>
</svg>
