<?xml version="1.0" encoding="UTF-8" standalone="no"?>
<!DOCTYPE svg PUBLIC "-//W3C//DTD SVG 1.1//EN"
 "http://www.w3.org/Graphics/SVG/1.1/DTD/svg11.dtd">
<!-- Generated by graphviz version 14.1.5 (20260411.2331)
 -->
<!-- Title: Inc/screenHandle.hpp Pages: 1 -->
<svg width="212pt" height="84pt"
 viewBox="0.00 0.00 212.00 84.00" xmlns="http://www.w3.org/2000/svg" xmlns:xlink="http://www.w3.org/1999/xlink">
<g id="graph0" class="graph" transform="scale(1 1) rotate(0) translate(4 80)">
<title>Inc/screenHandle.hpp</title>
<!-- Node1 -->
<g id="Node000001" class="node">
<title>Node1</title>
<g id="a_Node000001"><a xlink:title=" ">
<polygon fill="#999999" stroke="#666666" points="147.5,-76 36.25,-76 36.25,-56 147.5,-56 147.5,-76"/>
<text xml:space="preserve" text-anchor="middle" x="91.88" y="-62.5" font-family="Helvetica,sans-Serif" font-size="10.00">Inc/screenHandle.hpp</text>
</a>
</g>
</g>
<!-- Node2 -->
<g id="Node000002" class="node">
<title>Node2</title>
<g id="a_Node000002"><a xlink:href="main_8cpp.html" target="_top" xlink:title=" ">
<polygon fill="white" stroke="#666666" points="73.75,-20 0,-20 0,0 73.75,0 73.75,-20"/>
<text xml:space="preserve" text-anchor="middle" x="36.88" y="-6.5" font-family="Helvetica,sans-Serif" font-size="10.00">Src/main.cpp</text>
</a>
</g>
</g>
<!-- Node1&#45;&gt;Node2 -->
<g id="edge1_Node000001_Node000002" class="edge">
<title>Node1&#45;&gt;Node2</title>
<g id="a_edge1_Node000001_Node000002"><a xlink:title=" ">
<path fill="none" stroke="#63b8ff" d="M74.12,-47.57C64.88,-38.5 53.96,-27.78 46.35,-20.3"/>
<polygon fill="#63b8ff" stroke="#63b8ff" points="71.63,-50.03 81.21,-54.53 76.53,-45.03 71.63,-50.03"/>
</a>
</g>
</g>
<!-- Node3 -->
<g id="Node000003" class="node">
<title>Node3</title>
<g id="a_Node000003"><a xlink:href="screen_handle_8cpp.html" target="_top" xlink:title=" ">
<polygon fill="white" stroke="#666666" points="204.25,-20 91.5,-20 91.5,0 204.25,0 204.25,-20"/>
<text xml:space="preserve" text-anchor="middle" x="147.88" y="-6.5" font-family="Helvetica,sans-Serif" font-size="10.00">Src/screenHandle.cpp</text>
</a>
</g>
</g>
<!-- Node1&#45;&gt;Node3 -->
<g id="edge2_Node000001_Node000003" class="edge">
<title>Node1&#45;&gt;Node3</title>
<g id="a_edge2_Node000001_Node000003"><a xlink:title=" ">
<path fill="none" stroke="#63b8ff" d="M109.66,-47.85C119.13,-38.72 130.4,-27.86 138.23,-20.3"/>
<polygon fill="#63b8ff" stroke="#63b8ff" points="107.49,-45.08 102.72,-54.54 112.35,-50.12 107.49,-45.08"/>
</a>
</g>
</g>
</g>
</svg>
