<?xml version="1.0" encoding="UTF-8" standalone="no"?>
<!DOCTYPE svg PUBLIC "-//W3C//DTD SVG 1.1//EN"
 "http://www.w3.org/Graphics/SVG/1.1/DTD/svg11.dtd">
<!-- Generated by graphviz version 14.1.5 (20260411.2331)
 -->
<!-- Title: Src/screenHandle.cpp Pages: 1 -->
<svg width="363pt" height="252pt"
 viewBox="0.00 0.00 363.00 252.00" xmlns="http://www.w3.org/2000/svg" xmlns:xlink="http://www.w3.org/1999/xlink">
<g id="graph0" class="graph" transform="scale(1 1) rotate(0) translate(4 248)">
<title>Src/screenHandle.cpp</title>
<!-- Node1 -->
<g id="Node000001" class="node">
<title>Node1</title>
<g id="a_Node000001"><a xlink:title=" ">
<polygon fill="#999999" stroke="#666666" points="287.23,-244 174.48,-244 174.48,-224 287.23,-224 287.23,-244"/>
<text xml:space="preserve" text-anchor="middle" x="230.86" y="-230.5" font-family="Helvetica,sans-Serif" font-size="10.00">Src/screenHandle.cpp</text>
</a>
</g>
</g>
<!-- Node2 -->
<g id="Node000002" class="node">
<title>Node2</title>
<g id="a_Node000002"><a xlink:href="screen_handle_8hpp.html" target="_top" xlink:title=" ">
<polygon fill="white" stroke="#666666" points="152.23,-188 57.48,-188 57.48,-168 152.23,-168 152.23,-188"/>
<text xml:space="preserve" text-anchor="middle" x="104.86" y="-174.5" font-family="Helvetica,sans-Serif" font-size="10.00">screenHandle.hpp</text>
</a>
</g>
</g>
<!-- Node1&#45;&gt;Node2 -->
<g id="edge1_Node000001_Node000002" class="edge">
<title>Node1&#45;&gt;Node2</title>
<g id="a_edge1_Node000001_Node000002"><a xlink:title=" ">
<path fill="none" stroke="#63b8ff" d="M208.91,-223.59C189.16,-215.13 159.87,-202.58 137.39,-192.94"/>
<polygon fill="#63b8ff" stroke="#63b8ff" points="138.94,-189.8 128.37,-189.08 136.18,-196.23 138.94,-189.8"/>
</a>
</g>
</g>
<!-- Node10 -->
<g id="Node000010" class="node">
<title>Node10</title>
<g id="a_Node000010"><a xlink:title=" ">
<polygon fill="#e0e0e0" stroke="#999999" points="220.61,-188 173.11,-188 173.11,-168 220.61,-168 220.61,-188"/>
<text xml:space="preserve" text-anchor="middle" x="196.86" y="-174.5" font-family="Helvetica,sans-Serif" font-size="10.00">stdlib.h</text>
</a>
</g>
</g>
<!-- Node1&#45;&gt;Node10 -->
<g id="edge11_Node000001_Node000010" class="edge">
<title>Node1&#45;&gt;Node10</title>
<g id="a_edge11_Node000001_Node000010"><a xlink:title=" ">
<path fill="none" stroke="#63b8ff" d="M224.94,-223.59C220.5,-216.55 214.28,-206.67 208.82,-198"/>
<polygon fill="#63b8ff" stroke="#63b8ff" points="211.81,-196.18 203.52,-189.58 205.89,-199.91 211.81,-196.18"/>
</a>
</g>
</g>
<!-- Node11 -->
<g id="Node000011" class="node">
<title>Node11</title>
<g id="a_Node000011"><a xlink:href="screen_8h.html" target="_top" xlink:title=" ">
<polygon fill="white" stroke="#666666" points="292.61,-188 239.11,-188 239.11,-168 292.61,-168 292.61,-188"/>
<text xml:space="preserve" text-anchor="middle" x="265.86" y="-174.5" font-family="Helvetica,sans-Serif" font-size="10.00">screen.h</text>
</a>
</g>
</g>
<!-- Node1&#45;&gt;Node11 -->
<g id="edge12_Node000001_Node000011" class="edge">
<title>Node1&#45;&gt;Node11</title>
<g id="a_edge12_Node000001_Node000011"><a xlink:title=" ">
<path fill="none" stroke="#63b8ff" d="M236.96,-223.59C241.57,-216.47 248.07,-206.45 253.73,-197.72"/>
<polygon fill="#63b8ff" stroke="#63b8ff" points="256.51,-199.86 259.01,-189.57 250.63,-196.06 256.51,-199.86"/>
</a>
</g>
</g>
<!-- Node12 -->
<g id="Node000012" class="node">
<title>Node12</title>
<g id="a_Node000012"><a xlink:title=" ">
<polygon fill="#e0e0e0" stroke="#999999" points="355.48,-188 310.23,-188 310.23,-168 355.48,-168 355.48,-188"/>
<text xml:space="preserve" text-anchor="middle" x="332.86" y="-174.5" font-family="Helvetica,sans-Serif" font-size="10.00">cstring</text>
</a>
</g>
</g>
<!-- Node1&#45;&gt;Node12 -->
<g id="edge14_Node000001_Node000012" class="edge">
<title>Node1&#45;&gt;Node12</title>
<g id="a_edge14_Node000001_Node000012"><a xlink:title=" ">
<path fill="none" stroke="#63b8ff" d="M248.63,-223.59C264.18,-215.36 287.04,-203.26 305.02,-193.74"/>
<polygon fill="#63b8ff" stroke="#63b8ff" points="306.41,-196.96 313.62,-189.19 303.14,-190.77 306.41,-196.96"/>
</a>
</g>
</g>
<!-- Node3 -->
<g id="Node000003" class="node">
<title>Node3</title>
<g id="a_Node000003"><a xlink:href="main_8h.html" target="_top" xlink:title=": Header for main.c file. This file contains the common defines of the application.">
<polygon fill="white" stroke="#666666" points="58.48,-132 13.23,-132 13.23,-112 58.48,-112 58.48,-132"/>
<text xml:space="preserve" text-anchor="middle" x="35.86" y="-118.5" font-family="Helvetica,sans-Serif" font-size="10.00">main.h</text>
</a>
</g>
</g>
<!-- Node2&#45;&gt;Node3 -->
<g id="edge2_Node000002_Node000003" class="edge">
<title>Node2&#45;&gt;Node3</title>
<g id="a_edge2_Node000002_Node000003"><a xlink:title=" ">
<path fill="none" stroke="#63b8ff" d="M92.84,-167.59C82.85,-159.77 68.4,-148.46 56.55,-139.19"/>
<polygon fill="#63b8ff" stroke="#63b8ff" points="58.96,-136.64 48.93,-133.23 54.65,-142.15 58.96,-136.64"/>
</a>
</g>
</g>
<!-- Node5 -->
<g id="Node000005" class="node">
<title>Node5</title>
<g id="a_Node000005"><a xlink:href="_rx_class_8h.html" target="_top" xlink:title=" ">
<polygon fill="white" stroke="#666666" points="67.11,-76 4.61,-76 4.61,-56 67.11,-56 67.11,-76"/>
<text xml:space="preserve" text-anchor="middle" x="35.86" y="-62.5" font-family="Helvetica,sans-Serif" font-size="10.00">RxClass.h</text>
</a>
</g>
</g>
<!-- Node2&#45;&gt;Node5 -->
<g id="edge9_Node000002_Node000005" class="edge">
<title>Node2&#45;&gt;Node5</title>
<g id="a_edge9_Node000002_Node000005"><a xlink:title=" ">
<path fill="none" stroke="#63b8ff" d="M57.11,-167.77C37.11,-161.29 15.77,-150.35 3.86,-132 -6.14,-116.6 5.68,-97.62 17.68,-84.15"/>
<polygon fill="#63b8ff" stroke="#63b8ff" points="19.88,-86.91 24.31,-77.28 14.85,-82.05 19.88,-86.91"/>
</a>
</g>
</g>
<!-- Node7 -->
<g id="Node000007" class="node">
<title>Node7</title>
<g id="a_Node000007"><a xlink:title=" ">
<polygon fill="#e0e0e0" stroke="#999999" points="119.36,-132 76.36,-132 76.36,-112 119.36,-112 119.36,-132"/>
<text xml:space="preserve" text-anchor="middle" x="97.86" y="-118.5" font-family="Helvetica,sans-Serif" font-size="10.00">vector</text>
</a>
</g>
</g>
<!-- Node2&#45;&gt;Node7 -->
<g id="edge7_Node000002_Node000007" class="edge">
<title>Node2&#45;&gt;Node7</title>
<g id="a_edge7_Node000002_Node000007"><a xlink:title=" ">
<path fill="none" stroke="#63b8ff" d="M103.64,-167.59C102.78,-160.93 101.58,-151.75 100.51,-143.44"/>
<polygon fill="#63b8ff" stroke="#63b8ff" points="104.02,-143.27 99.26,-133.8 97.07,-144.17 104.02,-143.27"/>
</a>
</g>
</g>
<!-- Node8 -->
<g id="Node000008" class="node">
<title>Node8</title>
<g id="a_Node000008"><a xlink:title=" ">
<polygon fill="#e0e0e0" stroke="#999999" points="177.86,-132 137.86,-132 137.86,-112 177.86,-112 177.86,-132"/>
<text xml:space="preserve" text-anchor="middle" x="157.86" y="-118.5" font-family="Helvetica,sans-Serif" font-size="10.00">string</text>
</a>
</g>
</g>
<!-- Node2&#45;&gt;Node8 -->
<g id="edge8_Node000002_Node000008" class="edge">
<title>Node2&#45;&gt;Node8</title>
<g id="a_edge8_Node000002_Node000008"><a xlink:title=" ">
<path fill="none" stroke="#63b8ff" d="M114.09,-167.59C121.46,-160.08 131.99,-149.35 140.88,-140.3"/>
<polygon fill="#63b8ff" stroke="#63b8ff" points="143.17,-142.97 147.67,-133.38 138.17,-138.06 143.17,-142.97"/>
</a>
</g>
</g>
<!-- Node9 -->
<g id="Node000009" class="node">
<title>Node9</title>
<g id="a_Node000009"><a xlink:title=" ">
<polygon fill="#e0e0e0" stroke="#999999" points="241.48,-132 196.23,-132 196.23,-112 241.48,-112 241.48,-132"/>
<text xml:space="preserve" text-anchor="middle" x="218.86" y="-118.5" font-family="Helvetica,sans-Serif" font-size="10.00">stdio.h</text>
</a>
</g>
</g>
<!-- Node2&#45;&gt;Node9 -->
<g id="edge10_Node000002_Node000009" class="edge">
<title>Node2&#45;&gt;Node9</title>
<g id="a_edge10_Node000002_Node000009"><a xlink:title=" ">
<path fill="none" stroke="#63b8ff" d="M124.72,-167.59C142.34,-159.24 168.37,-146.92 188.59,-137.34"/>
<polygon fill="#63b8ff" stroke="#63b8ff" points="189.94,-140.57 197.48,-133.13 186.94,-134.25 189.94,-140.57"/>
</a>
</g>
</g>
<!-- Node4 -->
<g id="Node000004" class="node">
<title>Node4</title>
<g id="a_Node000004"><a xlink:title=" ">
<polygon fill="#e0e0e0" stroke="#999999" points="242.86,-76 154.86,-76 154.86,-56 242.86,-56 242.86,-76"/>
<text xml:space="preserve" text-anchor="middle" x="198.86" y="-62.5" font-family="Helvetica,sans-Serif" font-size="10.00">stm32f1xx_hal.h</text>
</a>
</g>
</g>
<!-- Node3&#45;&gt;Node4 -->
<g id="edge3_Node000003_Node000004" class="edge">
<title>Node3&#45;&gt;Node4</title>
<g id="a_edge3_Node000003_Node000004"><a xlink:title=" ">
<path fill="none" stroke="#63b8ff" d="M58.87,-113.38C85.01,-104.72 128.12,-90.44 159.6,-80.01"/>
<polygon fill="#63b8ff" stroke="#63b8ff" points="160.38,-83.44 168.77,-76.97 158.18,-76.79 160.38,-83.44"/>
</a>
</g>
</g>
<!-- Node3&#45;&gt;Node5 -->
<g id="edge4_Node000003_Node000005" class="edge">
<title>Node3&#45;&gt;Node5</title>
<g id="a_edge4_Node000003_Node000005"><a xlink:title=" ">
<path fill="none" stroke="#63b8ff" d="M30.59,-111.59C29.27,-105.01 28.83,-95.96 29.27,-87.73"/>
<polygon fill="#63b8ff" stroke="#63b8ff" points="32.75,-88.14 30.44,-77.8 25.8,-87.33 32.75,-88.14"/>
</a>
</g>
</g>
<!-- Node5&#45;&gt;Node3 -->
<g id="edge5_Node000005_Node000003" class="edge">
<title>Node5&#45;&gt;Node3</title>
<g id="a_edge5_Node000005_Node000003"><a xlink:title=" ">
<path fill="none" stroke="#63b8ff" d="M41.1,-76.3C42.45,-82.93 42.89,-92.11 42.44,-100.43"/>
<polygon fill="#63b8ff" stroke="#63b8ff" points="38.99,-99.75 41.3,-110.09 45.94,-100.57 38.99,-99.75"/>
</a>
</g>
</g>
<!-- Node6 -->
<g id="Node000006" class="node">
<title>Node6</title>
<g id="a_Node000006"><a xlink:title=" ">
<polygon fill="#e0e0e0" stroke="#999999" points="58.48,-20 13.23,-20 13.23,0 58.48,0 58.48,-20"/>
<text xml:space="preserve" text-anchor="middle" x="35.86" y="-6.5" font-family="Helvetica,sans-Serif" font-size="10.00">cstdint</text>
</a>
</g>
</g>
<!-- Node5&#45;&gt;Node6 -->
<g id="edge6_Node000005_Node000006" class="edge">
<title>Node5&#45;&gt;Node6</title>
<g id="a_edge6_Node000005_Node000006"><a xlink:title=" ">
<path fill="none" stroke="#63b8ff" d="M35.86,-55.59C35.86,-49.01 35.86,-39.96 35.86,-31.73"/>
<polygon fill="#63b8ff" stroke="#63b8ff" points="39.36,-31.81 35.86,-21.81 32.36,-31.81 39.36,-31.81"/>
</a>
</g>
</g>
<!-- Node11&#45;&gt;Node4 -->
<g id="edge13_Node000011_Node000004" class="edge">
<title>Node11&#45;&gt;Node4</title>
<g id="a_edge13_Node000011_Node000004"><a xlink:title=" ">
<path fill="none" stroke="#63b8ff" d="M265.52,-167.94C264.66,-154.74 261.61,-129.86 250.86,-112 243.95,-100.53 233.11,-90.47 223.12,-82.79"/>
<polygon fill="#63b8ff" stroke="#63b8ff" points="225.34,-80.08 215.17,-77.07 221.24,-85.76 225.34,-80.08"/>
</a>
</g>
</g>
</g>
</svg>
