<?xml version="1.0" encoding="UTF-8" standalone="no"?>
<!DOCTYPE svg PUBLIC "-//W3C//DTD SVG 1.1//EN"
 "http://www.w3.org/Graphics/SVG/1.1/DTD/svg11.dtd">
<!-- Generated by graphviz version 14.1.5 (20260411.2331)
 -->
<!-- Title: Inc/stm32f1xx_hal_conf.h Pages: 1 -->
<svg width="1527pt" height="84pt"
 viewBox="0.00 0.00 1527.00 84.00" xmlns="http://www.w3.org/2000/svg" xmlns:xlink="http://www.w3.org/1999/xlink">
<g id="graph0" class="graph" transform="scale(1 1) rotate(0) translate(4 80)">
<title>Inc/stm32f1xx_hal_conf.h</title>
<!-- Node1 -->
<g id="Node000001" class="node">
<title>Node1</title>
<g id="a_Node000001"><a xlink:title="HAL configuration file.">
<polygon fill="#999999" stroke="#666666" points="830.62,-76 702.12,-76 702.12,-56 830.62,-56 830.62,-76"/>
<text xml:space="preserve" text-anchor="middle" x="766.38" y="-62.5" font-family="Helvetica,sans-Serif" font-size="10.00">Inc/stm32f1xx_hal_conf.h</text>
</a>
</g>
</g>
<!-- Node2 -->
<g id="Node000002" class="node">
<title>Node2</title>
<g id="a_Node000002"><a xlink:title=" ">
<polygon fill="#e0e0e0" stroke="#999999" points="106.75,-20 0,-20 0,0 106.75,0 106.75,-20"/>
<text xml:space="preserve" text-anchor="middle" x="53.38" y="-6.5" font-family="Helvetica,sans-Serif" font-size="10.00">stm32f1xx_hal_rcc.h</text>
</a>
</g>
</g>
<!-- Node1&#45;&gt;Node2 -->
<g id="edge1_Node000001_Node000002" class="edge">
<title>Node1&#45;&gt;Node2</title>
<g id="a_edge1_Node000001_Node000002"><a xlink:title=" ">
<path fill="none" stroke="#63b8ff" d="M702.02,-62.16C587,-56.73 338.37,-43.4 118.55,-20.27"/>
<polygon fill="#63b8ff" stroke="#63b8ff" points="118.93,-16.79 108.62,-19.21 118.19,-23.75 118.93,-16.79"/>
</a>
</g>
</g>
<!-- Node3 -->
<g id="Node000003" class="node">
<title>Node3</title>
<g id="a_Node000003"><a xlink:title=" ">
<polygon fill="#e0e0e0" stroke="#999999" points="236,-20 124.75,-20 124.75,0 236,0 236,-20"/>
<text xml:space="preserve" text-anchor="middle" x="180.38" y="-6.5" font-family="Helvetica,sans-Serif" font-size="10.00">stm32f1xx_hal_gpio.h</text>
</a>
</g>
</g>
<!-- Node1&#45;&gt;Node3 -->
<g id="edge2_Node000001_Node000003" class="edge">
<title>Node1&#45;&gt;Node3</title>
<g id="a_edge2_Node000001_Node000003"><a xlink:title=" ">
<path fill="none" stroke="#63b8ff" d="M701.97,-60.57C605.48,-53.68 417.37,-39.29 247.61,-20.32"/>
<polygon fill="#63b8ff" stroke="#63b8ff" points="248.03,-16.84 237.7,-19.2 247.25,-23.8 248.03,-16.84"/>
</a>
</g>
</g>
<!-- Node4 -->
<g id="Node000004" class="node">
<title>Node4</title>
<g id="a_Node000004"><a xlink:title=" ">
<polygon fill="#e0e0e0" stroke="#999999" points="362.88,-20 253.88,-20 253.88,0 362.88,0 362.88,-20"/>
<text xml:space="preserve" text-anchor="middle" x="308.38" y="-6.5" font-family="Helvetica,sans-Serif" font-size="10.00">stm32f1xx_hal_exti.h</text>
</a>
</g>
</g>
<!-- Node1&#45;&gt;Node4 -->
<g id="edge3_Node000001_Node000004" class="edge">
<title>Node1&#45;&gt;Node4</title>
<g id="a_edge3_Node000001_Node000004"><a xlink:title=" ">
<path fill="none" stroke="#63b8ff" d="M701.82,-58.15C626.09,-49.99 496.45,-35.67 374.57,-20.25"/>
<polygon fill="#63b8ff" stroke="#63b8ff" points="375.04,-16.78 364.68,-18.99 374.16,-23.73 375.04,-16.78"/>
</a>
</g>
</g>
<!-- Node5 -->
<g id="Node000005" class="node">
<title>Node5</title>
<g id="a_Node000005"><a xlink:title=" ">
<polygon fill="#e0e0e0" stroke="#999999" points="493.38,-20 381.38,-20 381.38,0 493.38,0 493.38,-20"/>
<text xml:space="preserve" text-anchor="middle" x="437.38" y="-6.5" font-family="Helvetica,sans-Serif" font-size="10.00">stm32f1xx_hal_dma.h</text>
</a>
</g>
</g>
<!-- Node1&#45;&gt;Node5 -->
<g id="edge4_Node000001_Node000005" class="edge">
<title>Node1&#45;&gt;Node5</title>
<g id="a_edge4_Node000001_Node000005"><a xlink:title=" ">
<path fill="none" stroke="#63b8ff" d="M708.69,-55.53C651.82,-46.2 564.93,-31.94 504.88,-22.08"/>
<polygon fill="#63b8ff" stroke="#63b8ff" points="505.55,-18.64 495.11,-20.48 504.41,-25.55 505.55,-18.64"/>
</a>
</g>
</g>
<!-- Node6 -->
<g id="Node000006" class="node">
<title>Node6</title>
<g id="a_Node000006"><a xlink:title=" ">
<polygon fill="#e0e0e0" stroke="#999999" points="620.88,-20 511.88,-20 511.88,0 620.88,0 620.88,-20"/>
<text xml:space="preserve" text-anchor="middle" x="566.38" y="-6.5" font-family="Helvetica,sans-Serif" font-size="10.00">stm32f1xx_hal_can.h</text>
</a>
</g>
</g>
<!-- Node1&#45;&gt;Node6 -->
<g id="edge5_Node000001_Node000006" class="edge">
<title>Node1&#45;&gt;Node6</title>
<g id="a_edge5_Node000001_Node000006"><a xlink:title=" ">
<path fill="none" stroke="#63b8ff" d="M731.54,-55.59C698.47,-46.67 648.57,-33.19 612.28,-23.39"/>
<polygon fill="#63b8ff" stroke="#63b8ff" points="613.51,-20.1 602.95,-20.87 611.69,-26.86 613.51,-20.1"/>
</a>
</g>
</g>
<!-- Node7 -->
<g id="Node000007" class="node">
<title>Node7</title>
<g id="a_Node000007"><a xlink:title=" ">
<polygon fill="#e0e0e0" stroke="#999999" points="759.5,-20 639.25,-20 639.25,0 759.5,0 759.5,-20"/>
<text xml:space="preserve" text-anchor="middle" x="699.38" y="-6.5" font-family="Helvetica,sans-Serif" font-size="10.00">stm32f1xx_hal_cortex.h</text>
</a>
</g>
</g>
<!-- Node1&#45;&gt;Node7 -->
<g id="edge6_Node000001_Node000007" class="edge">
<title>Node1&#45;&gt;Node7</title>
<g id="a_edge6_Node000001_Node000007"><a xlink:title=" ">
<path fill="none" stroke="#63b8ff" d="M754.7,-55.59C745.1,-47.85 731.25,-36.69 719.81,-27.47"/>
<polygon fill="#63b8ff" stroke="#63b8ff" points="722.07,-24.8 712.09,-21.25 717.68,-30.25 722.07,-24.8"/>
</a>
</g>
</g>
<!-- Node8 -->
<g id="Node000008" class="node">
<title>Node8</title>
<g id="a_Node000008"><a xlink:title=" ">
<polygon fill="#e0e0e0" stroke="#999999" points="891.5,-20 777.25,-20 777.25,0 891.5,0 891.5,-20"/>
<text xml:space="preserve" text-anchor="middle" x="834.38" y="-6.5" font-family="Helvetica,sans-Serif" font-size="10.00">stm32f1xx_hal_flash.h</text>
</a>
</g>
</g>
<!-- Node1&#45;&gt;Node8 -->
<g id="edge7_Node000001_Node000008" class="edge">
<title>Node1&#45;&gt;Node8</title>
<g id="a_edge7_Node000001_Node000008"><a xlink:title=" ">
<path fill="none" stroke="#63b8ff" d="M778.22,-55.59C788.07,-47.77 802.31,-36.46 813.98,-27.19"/>
<polygon fill="#63b8ff" stroke="#63b8ff" points="815.83,-30.2 821.48,-21.24 811.47,-24.72 815.83,-30.2"/>
</a>
</g>
</g>
<!-- Node9 -->
<g id="Node000009" class="node">
<title>Node9</title>
<g id="a_Node000009"><a xlink:title=" ">
<polygon fill="#e0e0e0" stroke="#999999" points="1015.38,-20 909.38,-20 909.38,0 1015.38,0 1015.38,-20"/>
<text xml:space="preserve" text-anchor="middle" x="962.38" y="-6.5" font-family="Helvetica,sans-Serif" font-size="10.00">stm32f1xx_hal_i2c.h</text>
</a>
</g>
</g>
<!-- Node1&#45;&gt;Node9 -->
<g id="edge8_Node000001_Node000009" class="edge">
<title>Node1&#45;&gt;Node9</title>
<g id="a_edge8_Node000001_Node000009"><a xlink:title=" ">
<path fill="none" stroke="#63b8ff" d="M800.52,-55.59C832.78,-46.71 881.4,-33.31 916.93,-23.52"/>
<polygon fill="#63b8ff" stroke="#63b8ff" points="917.8,-26.91 926.51,-20.88 915.94,-20.16 917.8,-26.91"/>
</a>
</g>
</g>
<!-- Node10 -->
<g id="Node000010" class="node">
<title>Node10</title>
<g id="a_Node000010"><a xlink:title=" ">
<polygon fill="#e0e0e0" stroke="#999999" points="1142.88,-20 1033.88,-20 1033.88,0 1142.88,0 1142.88,-20"/>
<text xml:space="preserve" text-anchor="middle" x="1088.38" y="-6.5" font-family="Helvetica,sans-Serif" font-size="10.00">stm32f1xx_hal_pwr.h</text>
</a>
</g>
</g>
<!-- Node1&#45;&gt;Node10 -->
<g id="edge9_Node000001_Node000010" class="edge">
<title>Node1&#45;&gt;Node10</title>
<g id="a_edge9_Node000001_Node000010"><a xlink:title=" ">
<path fill="none" stroke="#63b8ff" d="M822.83,-55.53C878.58,-46.18 963.79,-31.89 1022.58,-22.03"/>
<polygon fill="#63b8ff" stroke="#63b8ff" points="1022.82,-25.54 1032.1,-20.44 1021.66,-18.64 1022.82,-25.54"/>
</a>
</g>
</g>
<!-- Node11 -->
<g id="Node000011" class="node">
<title>Node11</title>
<g id="a_Node000011"><a xlink:title=" ">
<polygon fill="#e0e0e0" stroke="#999999" points="1267.38,-20 1161.38,-20 1161.38,0 1267.38,0 1267.38,-20"/>
<text xml:space="preserve" text-anchor="middle" x="1214.38" y="-6.5" font-family="Helvetica,sans-Serif" font-size="10.00">stm32f1xx_hal_spi.h</text>
</a>
</g>
</g>
<!-- Node1&#45;&gt;Node11 -->
<g id="edge10_Node000001_Node000011" class="edge">
<title>Node1&#45;&gt;Node11</title>
<g id="a_edge10_Node000001_Node000011"><a xlink:title=" ">
<path fill="none" stroke="#63b8ff" d="M830.98,-58.03C905.3,-49.88 1031.3,-35.69 1149.54,-20.34"/>
<polygon fill="#63b8ff" stroke="#63b8ff" points="1149.99,-23.81 1159.45,-19.05 1149.08,-16.87 1149.99,-23.81"/>
</a>
</g>
</g>
<!-- Node12 -->
<g id="Node000012" class="node">
<title>Node12</title>
<g id="a_Node000012"><a xlink:title=" ">
<polygon fill="#e0e0e0" stroke="#999999" points="1391.75,-20 1285,-20 1285,0 1391.75,0 1391.75,-20"/>
<text xml:space="preserve" text-anchor="middle" x="1338.38" y="-6.5" font-family="Helvetica,sans-Serif" font-size="10.00">stm32f1xx_hal_tim.h</text>
</a>
</g>
</g>
<!-- Node1&#45;&gt;Node12 -->
<g id="edge11_Node000001_Node000012" class="edge">
<title>Node1&#45;&gt;Node12</title>
<g id="a_edge11_Node000001_Node000012"><a xlink:title=" ">
<path fill="none" stroke="#63b8ff" d="M830.9,-60.47C925.62,-53.57 1108.14,-39.29 1273.28,-20.31"/>
<polygon fill="#63b8ff" stroke="#63b8ff" points="1273.6,-23.79 1283.13,-19.16 1272.79,-16.84 1273.6,-23.79"/>
</a>
</g>
</g>
<!-- Node13 -->
<g id="Node000013" class="node">
<title>Node13</title>
<g id="a_Node000013"><a xlink:title=" ">
<polygon fill="#e0e0e0" stroke="#999999" points="1519.25,-20 1409.5,-20 1409.5,0 1519.25,0 1519.25,-20"/>
<text xml:space="preserve" text-anchor="middle" x="1464.38" y="-6.5" font-family="Helvetica,sans-Serif" font-size="10.00">stm32f1xx_hal_uart.h</text>
</a>
</g>
</g>
<!-- Node1&#45;&gt;Node13 -->
<g id="edge12_Node000001_Node000013" class="edge">
<title>Node1&#45;&gt;Node13</title>
<g id="a_edge12_Node000001_Node000013"><a xlink:title=" ">
<path fill="none" stroke="#63b8ff" d="M830.85,-61.89C943.58,-56.14 1184.05,-42.44 1397.8,-20.2"/>
<polygon fill="#63b8ff" stroke="#63b8ff" points="1398.16,-23.68 1407.74,-19.16 1397.43,-16.72 1398.16,-23.68"/>
</a>
</g>
</g>
</g>
</svg>
