<?xml version="1.0" encoding="UTF-8" standalone="no"?>
<!DOCTYPE svg PUBLIC "-//W3C//DTD SVG 1.1//EN"
 "http://www.w3.org/Graphics/SVG/1.1/DTD/svg11.dtd">
<!-- Generated by graphviz version 14.1.5 (20260411.2331)
 -->
<!-- Title: Src/stm32f1xx_it.c Pages: 1 -->
<svg width="266pt" height="196pt"
 viewBox="0.00 0.00 266.00 196.00" xmlns="http://www.w3.org/2000/svg" xmlns:xlink="http://www.w3.org/1999/xlink">
<g id="graph0" class="graph" transform="scale(1 1) rotate(0) translate(4 192)">
<title>Src/stm32f1xx_it.c</title>
<!-- Node1 -->
<g id="Node000001" class="node">
<title>Node1</title>
<g id="a_Node000001"><a xlink:title="Interrupt Service Routines.">
<polygon fill="#999999" stroke="#666666" points="226.25,-188 127.75,-188 127.75,-168 226.25,-168 226.25,-188"/>
<text xml:space="preserve" text-anchor="middle" x="177" y="-174.5" font-family="Helvetica,sans-Serif" font-size="10.00">Src/stm32f1xx_it.c</text>
</a>
</g>
</g>
<!-- Node2 -->
<g id="Node000002" class="node">
<title>Node2</title>
<g id="a_Node000002"><a xlink:href="main_8h.html" target="_top" xlink:title=": Header for main.c file. This file contains the common defines of the application.">
<polygon fill="white" stroke="#666666" points="159.62,-132 114.38,-132 114.38,-112 159.62,-112 159.62,-132"/>
<text xml:space="preserve" text-anchor="middle" x="137" y="-118.5" font-family="Helvetica,sans-Serif" font-size="10.00">main.h</text>
</a>
</g>
</g>
<!-- Node1&#45;&gt;Node2 -->
<g id="edge1_Node000001_Node000002" class="edge">
<title>Node1&#45;&gt;Node2</title>
<g id="a_edge1_Node000001_Node000002"><a xlink:title=" ">
<path fill="none" stroke="#63b8ff" d="M170.03,-167.59C164.7,-160.39 157.17,-150.23 150.65,-141.43"/>
<polygon fill="#63b8ff" stroke="#63b8ff" points="153.55,-139.47 144.79,-133.51 147.93,-143.63 153.55,-139.47"/>
</a>
</g>
</g>
<!-- Node6 -->
<g id="Node000006" class="node">
<title>Node6</title>
<g id="a_Node000006"><a xlink:href="stm32f1xx__it_8h.html" target="_top" xlink:title="This file contains the headers of the interrupt handlers.">
<polygon fill="white" stroke="#666666" points="258.25,-132 177.75,-132 177.75,-112 258.25,-112 258.25,-132"/>
<text xml:space="preserve" text-anchor="middle" x="218" y="-118.5" font-family="Helvetica,sans-Serif" font-size="10.00">stm32f1xx_it.h</text>
</a>
</g>
</g>
<!-- Node1&#45;&gt;Node6 -->
<g id="edge6_Node000001_Node000006" class="edge">
<title>Node1&#45;&gt;Node6</title>
<g id="a_edge6_Node000001_Node000006"><a xlink:title=" ">
<path fill="none" stroke="#63b8ff" d="M184.14,-167.59C189.61,-160.39 197.32,-150.23 204.01,-141.43"/>
<polygon fill="#63b8ff" stroke="#63b8ff" points="206.77,-143.58 210.02,-133.5 201.19,-139.35 206.77,-143.58"/>
</a>
</g>
</g>
<!-- Node3 -->
<g id="Node000003" class="node">
<title>Node3</title>
<g id="a_Node000003"><a xlink:title=" ">
<polygon fill="#e0e0e0" stroke="#999999" points="88,-76 0,-76 0,-56 88,-56 88,-76"/>
<text xml:space="preserve" text-anchor="middle" x="44" y="-62.5" font-family="Helvetica,sans-Serif" font-size="10.00">stm32f1xx_hal.h</text>
</a>
</g>
</g>
<!-- Node2&#45;&gt;Node3 -->
<g id="edge2_Node000002_Node000003" class="edge">
<title>Node2&#45;&gt;Node3</title>
<g id="a_edge2_Node000002_Node000003"><a xlink:title=" ">
<path fill="none" stroke="#63b8ff" d="M120.8,-111.59C106.75,-103.44 86.17,-91.48 69.84,-82"/>
<polygon fill="#63b8ff" stroke="#63b8ff" points="72.04,-79.23 61.63,-77.24 68.53,-85.29 72.04,-79.23"/>
</a>
</g>
</g>
<!-- Node4 -->
<g id="Node000004" class="node">
<title>Node4</title>
<g id="a_Node000004"><a xlink:href="_rx_class_8h.html" target="_top" xlink:title=" ">
<polygon fill="white" stroke="#666666" points="168.25,-76 105.75,-76 105.75,-56 168.25,-56 168.25,-76"/>
<text xml:space="preserve" text-anchor="middle" x="137" y="-62.5" font-family="Helvetica,sans-Serif" font-size="10.00">RxClass.h</text>
</a>
</g>
</g>
<!-- Node2&#45;&gt;Node4 -->
<g id="edge3_Node000002_Node000004" class="edge">
<title>Node2&#45;&gt;Node4</title>
<g id="a_edge3_Node000002_Node000004"><a xlink:title=" ">
<path fill="none" stroke="#63b8ff" d="M131.73,-111.59C130.42,-105.01 129.98,-95.96 130.41,-87.73"/>
<polygon fill="#63b8ff" stroke="#63b8ff" points="133.89,-88.14 131.58,-77.8 126.94,-87.33 133.89,-88.14"/>
</a>
</g>
</g>
<!-- Node4&#45;&gt;Node2 -->
<g id="edge4_Node000004_Node000002" class="edge">
<title>Node4&#45;&gt;Node2</title>
<g id="a_edge4_Node000004_Node000002"><a xlink:title=" ">
<path fill="none" stroke="#63b8ff" d="M142.25,-76.3C143.59,-82.93 144.03,-92.11 143.58,-100.43"/>
<polygon fill="#63b8ff" stroke="#63b8ff" points="140.13,-99.75 142.44,-110.09 147.08,-100.57 140.13,-99.75"/>
</a>
</g>
</g>
<!-- Node5 -->
<g id="Node000005" class="node">
<title>Node5</title>
<g id="a_Node000005"><a xlink:title=" ">
<polygon fill="#e0e0e0" stroke="#999999" points="159.62,-20 114.38,-20 114.38,0 159.62,0 159.62,-20"/>
<text xml:space="preserve" text-anchor="middle" x="137" y="-6.5" font-family="Helvetica,sans-Serif" font-size="10.00">cstdint</text>
</a>
</g>
</g>
<!-- Node4&#45;&gt;Node5 -->
<g id="edge5_Node000004_Node000005" class="edge">
<title>Node4&#45;&gt;Node5</title>
<g id="a_edge5_Node000004_Node000005"><a xlink:title=" ">
<path fill="none" stroke="#63b8ff" d="M137,-55.59C137,-49.01 137,-39.96 137,-31.73"/>
<polygon fill="#63b8ff" stroke="#63b8ff" points="140.5,-31.81 137,-21.81 133.5,-31.81 140.5,-31.81"/>
</a>
</g>
</g>
</g>
</svg>
